<svg width="160" height="155" viewBox="0 0 160 155" fill="none" xmlns="http://www.w3.org/2000/svg">
<g clip-path="url(#clip0_5_7)">
<path d="M13.3023 17.7209H17.9535V22.3721H13.3023V17.7209ZM13.3023 22.3721H17.9535V27.0233H13.3023V22.3721ZM17.9535 22.3721H22.6047V27.0233H17.9535V22.3721ZM17.9535 27.0233H22.6047V31.6744H17.9535V27.0233ZM22.6047 27.0233H27.2558V31.6744H22.6047V27.0233ZM22.6047 31.6744H27.2558V36.3256H22.6047V31.6744ZM27.2558 31.6744H31.907V36.3256H27.2558V31.6744ZM27.2558 27.0233H31.907V31.6744H27.2558V27.0233ZM31.907 27.0233H36.5581V31.6744H31.907V27.0233ZM31.907 31.6744H36.5581V36.3256H31.907V31.6744ZM36.5581 22.3721H41.2093V27.0233H36.5581V22.3721ZM41.2093 27.0233H45.8605V31.6744H41.2093V27.0233ZM45.8605 27.0233H50.5116V31.6744H45.8605V27.0233ZM36.5581 27.0233H41.2093V31.6744H36.5581V27.0233ZM36.5581 31.6744H41.2093V36.3256H36.5581V31.6744ZM41.2093 31.6744H45.8605V36.3256H41.2093V31.6744ZM45.8605 31.6744H50.5116V36.3256H45.8605V31.6744ZM50.5116 31.6744H55.1628V36.3256H50.5116V31.6744ZM55.1628 31.6744H59.814V36.3256H55.1628V31.6744ZM59.814 31.6744H64.4651V36.3256H59.814V31.6744ZM64.4651 31.6744H69.1163V36.3256H64.4651V31.6744ZM69.1163 31.6744H73.7674V36.3256H69.1163V31.6744ZM73.7674 31.6744H78.4186V36.3256H73.7674V31.6744ZM78.4186 31.6744H83.0698V36.3256H78.4186V31.6744ZM83.0698 31.6744H87.7209V36.3256H83.0698V31.6744ZM87.7209 31.6744H92.3721V36.3256H87.7209V31.6744ZM92.3721 31.6744H97.0233V36.3256H92.3721V31.6744ZM92.3721 27.0233H97.0233V31.6744H92.3721V27.0233ZM87.7209 27.0233H92.3721V31.6744H87.7209V27.0233ZM83.0698 27.0233H87.7209V31.6744H83.0698V27.0233ZM78.4186 27.0233H83.0698V31.6744H78.4186V27.0233ZM69.1163 27.0233H73.7674V31.6744H69.1163V27.0233ZM64.4651 27.0233H69.1163V31.6744H64.4651V27.0233ZM59.814 27.0233H64.4651V31.6744H59.814V27.0233ZM55.1628 27.0233H59.814V31.6744H55.1628V27.0233ZM50.5116 27.0233H55.1628V31.6744H50.5116V27.0233ZM73.7674 27.0233H78.4186V31.6744H73.7674V27.0233ZM69.1163 22.3721H73.7674V27.0233H69.1163V22.3721ZM69.1163 17.7209H73.7674V22.3721H69.1163V17.7209ZM64.4651 17.7209H69.1163V22.3721H64.4651V17.7209ZM64.4651 22.3721H69.1163V27.0233H64.4651V22.3721ZM73.7674 17.7209H78.4186V22.3721H73.7674V17.7209ZM78.4186 17.7209H83.0698V22.3721H78.4186V17.7209ZM78.4186 22.3721H83.0698V27.0233H78.4186V22.3721ZM73.7674 22.3721H78.4186V27.0233H73.7674V22.3721ZM97.0233 27.0233H101.674V31.6744H97.0233V27.0233ZM97.0233 31.6744H101.674V36.3256H97.0233V31.6744ZM101.674 31.6744H106.326V36.3256H101.674V31.6744ZM101.674 27.0233H106.326V31.6744H101.674V27.0233ZM101.674 22.3721H106.326V27.0233H101.674V22.3721ZM101.674 17.7209H106.326V22.3721H101.674V17.7209ZM106.326 17.7209H110.977V22.3721H106.326V17.7209ZM106.326 22.3721H110.977V27.0233H106.326V22.3721ZM106.326 27.0233H110.977V31.6744H106.326V27.0233ZM106.326 31.6744H110.977V36.3256H106.326V31.6744ZM110.977 31.6744H115.628V36.3256H110.977V31.6744ZM115.628 31.6744H120.279V36.3256H115.628V31.6744ZM115.628 27.0233H120.279V31.6744H115.628V27.0233ZM115.628 22.3721H120.279V27.0233H115.628V22.3721ZM115.628 17.7209H120.279V22.3721H115.628V17.7209ZM110.977 17.7209H115.628V22.3721H110.977V17.7209ZM110.977 22.3721H115.628V27.0233H110.977V22.3721ZM110.977 27.0233H115.628V31.6744H110.977V27.0233ZM120.279 27.0233H124.93V31.6744H120.279V27.0233ZM124.93 27.0233H129.581V31.6744H124.93V27.0233ZM124.93 31.6744H129.581V36.3256H124.93V31.6744ZM120.279 31.6744H124.93V36.3256H120.279V31.6744ZM129.581 27.0233H134.233V31.6744H129.581V27.0233ZM134.233 27.0233H138.884V31.6744H134.233V27.0233ZM134.233 31.6744H138.884V36.3256H134.233V31.6744ZM129.581 31.6744H134.233V36.3256H129.581V31.6744ZM36.5581 36.3256H41.2093V40.9767H36.5581V36.3256ZM36.5581 40.9767H41.2093V45.6279H36.5581V40.9767ZM36.5581 45.6279H41.2093V50.2791H36.5581V45.6279ZM36.5581 50.2791H41.2093V54.9302H36.5581V50.2791ZM36.5581 54.9302H41.2093V59.5814H36.5581V54.9302ZM41.2093 54.9302H45.8605V59.5814H41.2093V54.9302ZM41.2093 50.2791H45.8605V54.9302H41.2093V50.2791ZM41.2093 45.6279H45.8605V50.2791H41.2093V45.6279ZM41.2093 40.9767H45.8605V45.6279H41.2093V40.9767ZM41.2093 36.3256H45.8605V40.9767H41.2093V36.3256ZM45.8605 36.3256H50.5116V40.9767H45.8605V36.3256ZM50.5116 36.3256H55.1628V40.9767H50.5116V36.3256ZM50.5116 40.9767H55.1628V45.6279H50.5116V40.9767ZM50.5116 45.6279H55.1628V50.2791H50.5116V45.6279ZM50.5116 50.2791H55.1628V54.9302H50.5116V50.2791ZM50.5116 54.9302H55.1628V59.5814H50.5116V54.9302ZM50.5116 59.5814H55.1628V64.2326H50.5116V59.5814ZM45.8605 59.5814H50.5116V64.2326H45.8605V59.5814ZM45.8605 54.9302H50.5116V59.5814H45.8605V54.9302ZM45.8605 50.2791H50.5116V54.9302H45.8605V50.2791ZM45.8605 45.6279H50.5116V50.2791H45.8605V45.6279ZM45.8605 40.9767H50.5116V45.6279H45.8605V40.9767ZM36.5581 59.5814H41.2093V64.2326H36.5581V59.5814ZM36.5581 64.2326H41.2093V68.8837H36.5581V64.2326ZM36.5581 68.8837H41.2093V73.5349H36.5581V68.8837ZM41.2093 68.8837H45.8605V73.5349H41.2093V68.8837ZM45.8605 68.8837H50.5116V73.5349H45.8605V68.8837ZM45.8605 64.2326H50.5116V68.8837H45.8605V64.2326ZM50.5116 64.2326H55.1628V68.8837H50.5116V64.2326ZM41.2093 59.5814H45.8605V64.2326H41.2093V59.5814ZM41.2093 64.2326H45.8605V68.8837H41.2093V64.2326ZM50.5116 68.8837H55.1628V73.5349H50.5116V68.8837ZM31.907 54.9302H36.5581V59.5814H31.907V54.9302ZM27.2558 54.9302H31.907V59.5814H27.2558V54.9302ZM27.2558 59.5814H31.907V64.2326H27.2558V59.5814ZM31.907 59.5814H36.5581V64.2326H31.907V59.5814ZM22.6047 54.9302H27.2558V59.5814H22.6047V54.9302ZM17.9535 54.9302H22.6047V59.5814H17.9535V54.9302ZM17.9535 59.5814H22.6047V64.2326H17.9535V59.5814ZM22.6047 59.5814H27.2558V64.2326H22.6047V59.5814ZM31.907 73.5349H36.5581V78.186H31.907V73.5349ZM27.2558 73.5349H31.907V78.186H27.2558V73.5349ZM22.6047 73.5349H27.2558V78.186H22.6047V73.5349ZM17.9535 73.5349H22.6047V78.186H17.9535V73.5349ZM17.9535 78.186H22.6047V82.8372H17.9535V78.186ZM22.6047 78.186H27.2558V82.8372H22.6047V78.186ZM27.2558 78.186H31.907V82.8372H27.2558V78.186ZM31.907 78.186H36.5581V82.8372H31.907V78.186ZM36.5581 78.186H41.2093V82.8372H36.5581V78.186ZM36.5581 73.5349H41.2093V78.186H36.5581V73.5349ZM41.2093 73.5349H45.8605V78.186H41.2093V73.5349ZM45.8605 73.5349H50.5116V78.186H45.8605V73.5349ZM50.5116 73.5349H55.1628V78.186H50.5116V73.5349ZM50.5116 78.186H55.1628V82.8372H50.5116V78.186ZM45.8605 78.186H50.5116V82.8372H45.8605V78.186ZM41.2093 78.186H45.8605V82.8372H41.2093V78.186ZM36.5581 82.8372H41.2093V87.4884H36.5581V82.8372ZM41.2093 82.8372H45.8605V87.4884H41.2093V82.8372ZM45.8605 82.8372H50.5116V87.4884H45.8605V82.8372ZM50.5116 82.8372H55.1628V87.4884H50.5116V82.8372ZM50.5116 87.4884H55.1628V92.1395H50.5116V87.4884ZM45.8605 87.4884H50.5116V92.1395H45.8605V87.4884ZM41.2093 87.4884H45.8605V92.1395H41.2093V87.4884ZM36.5581 87.4884H41.2093V92.1395H36.5581V87.4884ZM36.5581 92.1395H41.2093V96.7907H36.5581V92.1395ZM41.2093 92.1395H45.8605V96.7907H41.2093V92.1395ZM41.2093 96.7907H45.8605V101.442H41.2093V96.7907ZM36.5581 96.7907H41.2093V101.442H36.5581V96.7907ZM78.4186 36.3256H83.0698V40.9767H78.4186V36.3256ZM73.7674 36.3256H78.4186V40.9767H73.7674V36.3256ZM73.7674 40.9767H78.4186V45.6279H73.7674V40.9767ZM78.4186 40.9767H83.0698V45.6279H78.4186V40.9767ZM83.0698 36.3256H87.7209V40.9767H83.0698V36.3256ZM87.7209 36.3256H92.3721V40.9767H87.7209V36.3256ZM87.7209 40.9767H92.3721V45.6279H87.7209V40.9767ZM83.0698 40.9767H87.7209V45.6279H83.0698V40.9767ZM73.7674 45.6279H78.4186V50.2791H73.7674V45.6279ZM73.7674 50.2791H78.4186V54.9302H73.7674V50.2791ZM73.7674 54.9302H78.4186V59.5814H73.7674V54.9302ZM73.7674 59.5814H78.4186V64.2326H73.7674V59.5814ZM73.7674 64.2326H78.4186V68.8837H73.7674V64.2326ZM73.7674 68.8837H78.4186V73.5349H73.7674V68.8837ZM73.7674 73.5349H78.4186V78.186H73.7674V73.5349ZM73.7674 78.186H78.4186V82.8372H73.7674V78.186ZM73.7674 82.8372H78.4186V87.4884H73.7674V82.8372ZM73.7674 87.4884H78.4186V92.1395H73.7674V87.4884ZM73.7674 92.1395H78.4186V96.7907H73.7674V92.1395ZM73.7674 96.7907H78.4186V101.442H73.7674V96.7907ZM73.7674 101.442H78.4186V106.093H73.7674V101.442ZM73.7674 106.093H78.4186V110.744H73.7674V106.093ZM73.7674 110.744H78.4186V115.395H73.7674V110.744ZM73.7674 115.395H78.4186V120.047H73.7674V115.395ZM73.7674 120.047H78.4186V124.698H73.7674V120.047ZM73.7674 124.698H78.4186V129.349H73.7674V124.698ZM73.7674 129.349H78.4186V134H73.7674V129.349ZM78.4186 129.349H83.0698V134H78.4186V129.349ZM83.0698 129.349H87.7209V134H83.0698V129.349ZM87.7209 129.349H92.3721V134H87.7209V129.349ZM87.7209 124.698H92.3721V129.349H87.7209V124.698ZM87.7209 120.047H92.3721V124.698H87.7209V120.047ZM87.7209 115.395H92.3721V120.047H87.7209V115.395ZM87.7209 106.093H92.3721V110.744H87.7209V106.093ZM87.7209 101.442H92.3721V106.093H87.7209V101.442ZM87.7209 96.7907H92.3721V101.442H87.7209V96.7907ZM87.7209 92.1395H92.3721V96.7907H87.7209V92.1395ZM87.7209 87.4884H92.3721V92.1395H87.7209V87.4884ZM87.7209 82.8372H92.3721V87.4884H87.7209V82.8372ZM87.7209 110.744H92.3721V115.395H87.7209V110.744ZM83.0698 92.1395H87.7209V96.7907H83.0698V92.1395ZM83.0698 87.4884H87.7209V92.1395H83.0698V87.4884ZM87.7209 78.186H92.3721V82.8372H87.7209V78.186ZM87.7209 73.5349H92.3721V78.186H87.7209V73.5349ZM87.7209 68.8837H92.3721V73.5349H87.7209V68.8837ZM83.0698 68.8837H87.7209V73.5349H83.0698V68.8837ZM83.0698 64.2326H87.7209V68.8837H83.0698V64.2326ZM83.0698 59.5814H87.7209V64.2326H83.0698V59.5814ZM87.7209 54.9302H92.3721V59.5814H87.7209V54.9302ZM87.7209 50.2791H92.3721V54.9302H87.7209V50.2791ZM87.7209 45.6279H92.3721V50.2791H87.7209V45.6279ZM87.7209 59.5814H92.3721V64.2326H87.7209V59.5814ZM87.7209 64.2326H92.3721V68.8837H87.7209V64.2326ZM83.0698 50.2791H87.7209V54.9302H83.0698V50.2791ZM83.0698 54.9302H87.7209V59.5814H83.0698V54.9302ZM78.4186 59.5814H83.0698V64.2326H78.4186V59.5814ZM78.4186 68.8837H83.0698V73.5349H78.4186V68.8837ZM78.4186 73.5349H83.0698V78.186H78.4186V73.5349ZM83.0698 73.5349H87.7209V78.186H83.0698V73.5349ZM83.0698 78.186H87.7209V82.8372H83.0698V78.186ZM83.0698 45.6279H87.7209V50.2791H83.0698V45.6279ZM78.4186 50.2791H83.0698V54.9302H78.4186V50.2791ZM78.4186 54.9302H83.0698V59.5814H78.4186V54.9302ZM78.4186 64.2326H83.0698V68.8837H78.4186V64.2326ZM78.4186 45.6279H83.0698V50.2791H78.4186V45.6279ZM78.4186 78.186H83.0698V82.8372H78.4186V78.186ZM78.4186 82.8372H83.0698V87.4884H78.4186V82.8372ZM78.4186 87.4884H83.0698V92.1395H78.4186V87.4884ZM78.4186 92.1395H83.0698V96.7907H78.4186V92.1395ZM78.4186 96.7907H83.0698V101.442H78.4186V96.7907ZM78.4186 101.442H83.0698V106.093H78.4186V101.442ZM78.4186 106.093H83.0698V110.744H78.4186V106.093ZM78.4186 110.744H83.0698V115.395H78.4186V110.744ZM78.4186 115.395H83.0698V120.047H78.4186V115.395ZM83.0698 101.442H87.7209V106.093H83.0698V101.442ZM83.0698 96.7907H87.7209V101.442H83.0698V96.7907ZM83.0698 82.8372H87.7209V87.4884H83.0698V82.8372ZM83.0698 106.093H87.7209V110.744H83.0698V106.093ZM83.0698 110.744H87.7209V115.395H83.0698V110.744ZM83.0698 115.395H87.7209V120.047H83.0698V115.395ZM83.0698 120.047H87.7209V124.698H83.0698V120.047ZM83.0698 124.698H87.7209V129.349H83.0698V124.698ZM78.4186 124.698H83.0698V129.349H78.4186V124.698ZM78.4186 120.047H83.0698V124.698H78.4186V120.047ZM69.1163 120.047H73.7674V124.698H69.1163V120.047ZM64.4651 120.047H69.1163V124.698H64.4651V120.047ZM64.4651 115.395H69.1163V120.047H64.4651V115.395ZM69.1163 115.395H73.7674V120.047H69.1163V115.395ZM92.3721 115.395H97.0233V120.047H92.3721V115.395ZM97.0233 115.395H101.674V120.047H97.0233V115.395ZM97.0233 120.047H101.674V124.698H97.0233V120.047ZM92.3721 120.047H97.0233V124.698H92.3721V120.047ZM69.1163 68.8837H73.7674V73.5349H69.1163V68.8837ZM69.1163 64.2326H73.7674V68.8837H69.1163V64.2326ZM64.4651 64.2326H69.1163V68.8837H64.4651V64.2326ZM64.4651 68.8837H69.1163V73.5349H64.4651V68.8837ZM92.3721 64.2326H97.0233V68.8837H92.3721V64.2326ZM92.3721 68.8837H97.0233V73.5349H92.3721V68.8837ZM97.0233 68.8837H101.674V73.5349H97.0233V68.8837ZM97.0233 64.2326H101.674V68.8837H97.0233V64.2326ZM115.628 36.3256H120.279V40.9767H115.628V36.3256ZM110.977 36.3256H115.628V40.9767H110.977V36.3256ZM110.977 40.9767H115.628V45.6279H110.977V40.9767ZM115.628 40.9767H120.279V45.6279H115.628V40.9767ZM120.279 40.9767H124.93V45.6279H120.279V40.9767ZM120.279 36.3256H124.93V40.9767H120.279V36.3256ZM124.93 36.3256H129.581V40.9767H124.93V36.3256ZM124.93 40.9767H129.581V45.6279H124.93V40.9767ZM110.977 45.6279H115.628V50.2791H110.977V45.6279ZM110.977 50.2791H115.628V54.9302H110.977V50.2791ZM110.977 54.9302H115.628V59.5814H110.977V54.9302ZM110.977 64.2326H115.628V68.8837H110.977V64.2326ZM110.977 68.8837H115.628V73.5349H110.977V68.8837ZM110.977 59.5814H115.628V64.2326H110.977V59.5814ZM110.977 73.5349H115.628V78.186H110.977V73.5349ZM110.977 78.186H115.628V82.8372H110.977V78.186ZM110.977 82.8372H115.628V87.4884H110.977V82.8372ZM110.977 87.4884H115.628V92.1395H110.977V87.4884ZM110.977 92.1395H115.628V96.7907H110.977V92.1395ZM110.977 96.7907H115.628V101.442H110.977V96.7907ZM110.977 101.442H115.628V106.093H110.977V101.442ZM110.977 106.093H115.628V110.744H110.977V106.093ZM110.977 110.744H115.628V115.395H110.977V110.744ZM110.977 115.395H115.628V120.047H110.977V115.395ZM110.977 120.047H115.628V124.698H110.977V120.047ZM115.628 120.047H120.279V124.698H115.628V120.047ZM120.279 120.047H124.93V124.698H120.279V120.047ZM124.93 120.047H129.581V124.698H124.93V120.047ZM124.93 115.395H129.581V120.047H124.93V115.395ZM124.93 110.744H129.581V115.395H124.93V110.744ZM124.93 106.093H129.581V110.744H124.93V106.093ZM124.93 101.442H129.581V106.093H124.93V101.442ZM124.93 96.7907H129.581V101.442H124.93V96.7907ZM124.93 92.1395H129.581V96.7907H124.93V92.1395ZM124.93 87.4884H129.581V92.1395H124.93V87.4884ZM120.279 82.8372H124.93V87.4884H120.279V82.8372ZM120.279 78.186H124.93V82.8372H120.279V78.186ZM120.279 73.5349H124.93V78.186H120.279V73.5349ZM120.279 68.8837H124.93V73.5349H120.279V68.8837ZM124.93 78.186H129.581V82.8372H124.93V78.186ZM124.93 82.8372H129.581V87.4884H124.93V82.8372ZM124.93 73.5349H129.581V78.186H124.93V73.5349ZM124.93 68.8837H129.581V73.5349H124.93V68.8837ZM124.93 64.2326H129.581V68.8837H124.93V64.2326ZM124.93 59.5814H129.581V64.2326H124.93V59.5814ZM124.93 54.9302H129.581V59.5814H124.93V54.9302ZM124.93 50.2791H129.581V54.9302H124.93V50.2791ZM124.93 45.6279H129.581V50.2791H124.93V45.6279ZM120.279 59.5814H124.93V64.2326H120.279V59.5814ZM120.279 64.2326H124.93V68.8837H120.279V64.2326ZM120.279 54.9302H124.93V59.5814H120.279V54.9302ZM120.279 45.6279H124.93V50.2791H120.279V45.6279ZM115.628 45.6279H120.279V50.2791H115.628V45.6279ZM115.628 50.2791H120.279V54.9302H115.628V50.2791ZM115.628 54.9302H120.279V59.5814H115.628V54.9302ZM115.628 59.5814H120.279V64.2326H115.628V59.5814ZM115.628 64.2326H120.279V68.8837H115.628V64.2326ZM120.279 50.2791H124.93V54.9302H120.279V50.2791ZM115.628 68.8837H120.279V73.5349H115.628V68.8837ZM115.628 73.5349H120.279V78.186H115.628V73.5349ZM115.628 78.186H120.279V82.8372H115.628V78.186ZM115.628 82.8372H120.279V87.4884H115.628V82.8372ZM115.628 87.4884H120.279V92.1395H115.628V87.4884ZM115.628 92.1395H120.279V96.7907H115.628V92.1395ZM115.628 96.7907H120.279V101.442H115.628V96.7907ZM115.628 101.442H120.279V106.093H115.628V101.442ZM115.628 106.093H120.279V110.744H115.628V106.093ZM115.628 110.744H120.279V115.395H115.628V110.744ZM115.628 115.395H120.279V120.047H115.628V115.395ZM120.279 115.395H124.93V120.047H120.279V115.395ZM120.279 110.744H124.93V115.395H120.279V110.744ZM120.279 106.093H124.93V110.744H120.279V106.093ZM120.279 96.7907H124.93V101.442H120.279V96.7907ZM120.279 92.1395H124.93V96.7907H120.279V92.1395ZM120.279 87.4884H124.93V92.1395H120.279V87.4884ZM120.279 101.442H124.93V106.093H120.279V101.442ZM124.93 124.698H129.581V129.349H124.93V124.698ZM120.279 124.698H124.93V129.349H120.279V124.698ZM120.279 129.349H124.93V134H120.279V129.349ZM124.93 129.349H129.581V134H124.93V129.349ZM129.581 115.395H134.233V120.047H129.581V115.395ZM134.233 115.395H138.884V120.047H134.233V115.395ZM134.233 120.047H138.884V124.698H134.233V120.047ZM129.581 120.047H134.233V124.698H129.581V120.047ZM50.5116 92.1395H55.1628V96.7907H50.5116V92.1395ZM45.8605 92.1395H50.5116V96.7907H45.8605V92.1395ZM41.2093 101.442H45.8605V106.093H41.2093V101.442ZM36.5581 101.442H41.2093V106.093H36.5581V101.442ZM31.907 110.744H36.5581V115.395H31.907V110.744ZM27.2558 110.744H31.907V115.395H27.2558V110.744ZM31.907 106.093H36.5581V110.744H31.907V106.093ZM22.6047 115.395H27.2558V120.047H22.6047V115.395ZM17.9535 115.395H22.6047V120.047H17.9535V115.395ZM17.9535 120.047H22.6047V124.698H17.9535V120.047ZM22.6047 120.047H27.2558V124.698H22.6047V120.047ZM13.3023 115.395H17.9535V120.047H13.3023V115.395ZM8.65116 115.395H13.3023V120.047H8.65116V115.395ZM13.3023 120.047H17.9535V124.698H13.3023V120.047ZM31.907 124.698H36.5581V129.349H31.907V124.698ZM27.2558 124.698H31.907V129.349H27.2558V124.698ZM27.2558 129.349H31.907V134H27.2558V129.349ZM31.907 129.349H36.5581V134H31.907V129.349ZM36.5581 124.698H41.2093V129.349H36.5581V124.698ZM41.2093 124.698H45.8605V129.349H41.2093V124.698ZM41.2093 129.349H45.8605V134H41.2093V129.349ZM36.5581 129.349H41.2093V134H36.5581V129.349ZM27.2558 115.395H31.907V120.047H27.2558V115.395ZM50.5116 120.047H55.1628V124.698H50.5116V120.047ZM45.8605 120.047H50.5116V124.698H45.8605V120.047ZM50.5116 115.395H55.1628V120.047H50.5116V115.395ZM31.907 120.047H36.5581V124.698H31.907V120.047ZM27.2558 120.047H31.907V124.698H27.2558V120.047ZM55.1628 110.744H59.814V115.395H55.1628V110.744ZM59.814 106.093H64.4651V110.744H59.814V106.093ZM59.814 110.744H64.4651V115.395H59.814V110.744ZM55.1628 115.395H59.814V120.047H55.1628V115.395ZM45.8605 124.698H50.5116V129.349H45.8605V124.698ZM92.3721 124.698H97.0233V129.349H92.3721V124.698ZM129.581 124.698H134.233V129.349H129.581V124.698ZM120.279 22.3721H124.93V27.0233H120.279V22.3721ZM97.0233 22.3721H101.674V27.0233H97.0233V22.3721ZM59.814 22.3721H64.4651V27.0233H59.814V22.3721ZM83.0698 22.3721H87.7209V27.0233H83.0698V22.3721ZM31.907 22.3721H36.5581V27.0233H31.907V22.3721ZM41.2093 22.3721H45.8605V27.0233H41.2093V22.3721ZM50.5116 22.3721H55.1628V27.0233H50.5116V22.3721ZM36.5581 106.093H41.2093V110.744H36.5581V106.093ZM45.8605 96.7907H50.5116V101.442H45.8605V96.7907ZM22.6047 124.698H27.2558V129.349H22.6047V124.698ZM17.9535 124.698H22.6047V129.349H17.9535V124.698ZM22.6047 129.349H27.2558V134H22.6047V129.349ZM36.5581 17.7209H41.2093V22.3721H36.5581V17.7209ZM31.907 17.7209H36.5581V22.3721H31.907V17.7209ZM27.2558 22.3721H31.907V27.0233H27.2558V22.3721ZM8.65116 120.047H13.3023V124.698H8.65116V120.047ZM69.1163 124.698H73.7674V129.349H69.1163V124.698ZM115.628 124.698H120.279V129.349H115.628V124.698Z" fill="white"/>
</g>
<defs>
<clipPath id="clip0_5_7">
<rect width="160" height="155" fill="white"/>
</clipPath>
</defs>
</svg>
