<svg width="627" height="155" viewBox="0 0 627 155" fill="none" xmlns="http://www.w3.org/2000/svg">
<g clip-path="url(#clip0_5_7)">
<path d="M13.3023 17.7209H17.9535V22.3721H13.3023V17.7209ZM13.3023 22.3721H17.9535V27.0233H13.3023V22.3721ZM17.9535 22.3721H22.6047V27.0233H17.9535V22.3721ZM17.9535 27.0233H22.6047V31.6744H17.9535V27.0233ZM22.6047 27.0233H27.2558V31.6744H22.6047V27.0233ZM22.6047 31.6744H27.2558V36.3256H22.6047V31.6744ZM27.2558 31.6744H31.907V36.3256H27.2558V31.6744ZM27.2558 27.0233H31.907V31.6744H27.2558V27.0233ZM31.907 27.0233H36.5581V31.6744H31.907V27.0233ZM31.907 31.6744H36.5581V36.3256H31.907V31.6744ZM36.5581 22.3721H41.2093V27.0233H36.5581V22.3721ZM41.2093 27.0233H45.8605V31.6744H41.2093V27.0233ZM45.8605 27.0233H50.5116V31.6744H45.8605V27.0233ZM36.5581 27.0233H41.2093V31.6744H36.5581V27.0233ZM36.5581 31.6744H41.2093V36.3256H36.5581V31.6744ZM41.2093 31.6744H45.8605V36.3256H41.2093V31.6744ZM45.8605 31.6744H50.5116V36.3256H45.8605V31.6744ZM50.5116 31.6744H55.1628V36.3256H50.5116V31.6744ZM55.1628 31.6744H59.814V36.3256H55.1628V31.6744ZM59.814 31.6744H64.4651V36.3256H59.814V31.6744ZM64.4651 31.6744H69.1163V36.3256H64.4651V31.6744ZM69.1163 31.6744H73.7674V36.3256H69.1163V31.6744ZM73.7674 31.6744H78.4186V36.3256H73.7674V31.6744ZM78.4186 31.6744H83.0698V36.3256H78.4186V31.6744ZM83.0698 31.6744H87.7209V36.3256H83.0698V31.6744ZM87.7209 31.6744H92.3721V36.3256H87.7209V31.6744ZM92.3721 31.6744H97.0233V36.3256H92.3721V31.6744ZM92.3721 27.0233H97.0233V31.6744H92.3721V27.0233ZM87.7209 27.0233H92.3721V31.6744H87.7209V27.0233ZM83.0698 27.0233H87.7209V31.6744H83.0698V27.0233ZM78.4186 27.0233H83.0698V31.6744H78.4186V27.0233ZM69.1163 27.0233H73.7674V31.6744H69.1163V27.0233ZM64.4651 27.0233H69.1163V31.6744H64.4651V27.0233ZM59.814 27.0233H64.4651V31.6744H59.814V27.0233ZM55.1628 27.0233H59.814V31.6744H55.1628V27.0233ZM50.5116 27.0233H55.1628V31.6744H50.5116V27.0233ZM73.7674 27.0233H78.4186V31.6744H73.7674V27.0233ZM69.1163 22.3721H73.7674V27.0233H69.1163V22.3721ZM69.1163 17.7209H73.7674V22.3721H69.1163V17.7209ZM64.4651 17.7209H69.1163V22.3721H64.4651V17.7209ZM64.4651 22.3721H69.1163V27.0233H64.4651V22.3721ZM73.7674 17.7209H78.4186V22.3721H73.7674V17.7209ZM78.4186 17.7209H83.0698V22.3721H78.4186V17.7209ZM78.4186 22.3721H83.0698V27.0233H78.4186V22.3721ZM73.7674 22.3721H78.4186V27.0233H73.7674V22.3721ZM97.0233 27.0233H101.674V31.6744H97.0233V27.0233ZM97.0233 31.6744H101.674V36.3256H97.0233V31.6744ZM101.674 31.6744H106.326V36.3256H101.674V31.6744ZM101.674 27.0233H106.326V31.6744H101.674V27.0233ZM101.674 22.3721H106.326V27.0233H101.674V22.3721ZM101.674 17.7209H106.326V22.3721H101.674V17.7209ZM106.326 17.7209H110.977V22.3721H106.326V17.7209ZM106.326 22.3721H110.977V27.0233H106.326V22.3721ZM106.326 27.0233H110.977V31.6744H106.326V27.0233ZM106.326 31.6744H110.977V36.3256H106.326V31.6744ZM110.977 31.6744H115.628V36.3256H110.977V31.6744ZM115.628 31.6744H120.279V36.3256H115.628V31.6744ZM115.628 27.0233H120.279V31.6744H115.628V27.0233ZM115.628 22.3721H120.279V27.0233H115.628V22.3721ZM115.628 17.7209H120.279V22.3721H115.628V17.7209ZM110.977 17.7209H115.628V22.3721H110.977V17.7209ZM110.977 22.3721H115.628V27.0233H110.977V22.3721ZM110.977 27.0233H115.628V31.6744H110.977V27.0233ZM120.279 27.0233H124.93V31.6744H120.279V27.0233ZM124.93 27.0233H129.581V31.6744H124.93V27.0233ZM124.93 31.6744H129.581V36.3256H124.93V31.6744ZM120.279 31.6744H124.93V36.3256H120.279V31.6744ZM129.581 27.0233H134.233V31.6744H129.581V27.0233ZM134.233 27.0233H138.884V31.6744H134.233V27.0233ZM134.233 31.6744H138.884V36.3256H134.233V31.6744ZM129.581 31.6744H134.233V36.3256H129.581V31.6744ZM36.5581 36.3256H41.2093V40.9767H36.5581V36.3256ZM36.5581 40.9767H41.2093V45.6279H36.5581V40.9767ZM36.5581 45.6279H41.2093V50.2791H36.5581V45.6279ZM36.5581 50.2791H41.2093V54.9302H36.5581V50.2791ZM36.5581 54.9302H41.2093V59.5814H36.5581V54.9302ZM41.2093 54.9302H45.8605V59.5814H41.2093V54.9302ZM41.2093 50.2791H45.8605V54.9302H41.2093V50.2791ZM41.2093 45.6279H45.8605V50.2791H41.2093V45.6279ZM41.2093 40.9767H45.8605V45.6279H41.2093V40.9767ZM41.2093 36.3256H45.8605V40.9767H41.2093V36.3256ZM45.8605 36.3256H50.5116V40.9767H45.8605V36.3256ZM50.5116 36.3256H55.1628V40.9767H50.5116V36.3256ZM50.5116 40.9767H55.1628V45.6279H50.5116V40.9767ZM50.5116 45.6279H55.1628V50.2791H50.5116V45.6279ZM50.5116 50.2791H55.1628V54.9302H50.5116V50.2791ZM50.5116 54.9302H55.1628V59.5814H50.5116V54.9302ZM50.5116 59.5814H55.1628V64.2326H50.5116V59.5814ZM45.8605 59.5814H50.5116V64.2326H45.8605V59.5814ZM45.8605 54.9302H50.5116V59.5814H45.8605V54.9302ZM45.8605 50.2791H50.5116V54.9302H45.8605V50.2791ZM45.8605 45.6279H50.5116V50.2791H45.8605V45.6279ZM45.8605 40.9767H50.5116V45.6279H45.8605V40.9767ZM36.5581 59.5814H41.2093V64.2326H36.5581V59.5814ZM36.5581 64.2326H41.2093V68.8837H36.5581V64.2326ZM36.5581 68.8837H41.2093V73.5349H36.5581V68.8837ZM41.2093 68.8837H45.8605V73.5349H41.2093V68.8837ZM45.8605 68.8837H50.5116V73.5349H45.8605V68.8837ZM45.8605 64.2326H50.5116V68.8837H45.8605V64.2326ZM50.5116 64.2326H55.1628V68.8837H50.5116V64.2326ZM41.2093 59.5814H45.8605V64.2326H41.2093V59.5814ZM41.2093 64.2326H45.8605V68.8837H41.2093V64.2326ZM50.5116 68.8837H55.1628V73.5349H50.5116V68.8837ZM31.907 54.9302H36.5581V59.5814H31.907V54.9302ZM27.2558 54.9302H31.907V59.5814H27.2558V54.9302ZM27.2558 59.5814H31.907V64.2326H27.2558V59.5814ZM31.907 59.5814H36.5581V64.2326H31.907V59.5814ZM22.6047 54.9302H27.2558V59.5814H22.6047V54.9302ZM17.9535 54.9302H22.6047V59.5814H17.9535V54.9302ZM17.9535 59.5814H22.6047V64.2326H17.9535V59.5814ZM22.6047 59.5814H27.2558V64.2326H22.6047V59.5814ZM31.907 73.5349H36.5581V78.186H31.907V73.5349ZM27.2558 73.5349H31.907V78.186H27.2558V73.5349ZM22.6047 73.5349H27.2558V78.186H22.6047V73.5349ZM17.9535 73.5349H22.6047V78.186H17.9535V73.5349ZM17.9535 78.186H22.6047V82.8372H17.9535V78.186ZM22.6047 78.186H27.2558V82.8372H22.6047V78.186ZM27.2558 78.186H31.907V82.8372H27.2558V78.186ZM31.907 78.186H36.5581V82.8372H31.907V78.186ZM36.5581 78.186H41.2093V82.8372H36.5581V78.186ZM36.5581 73.5349H41.2093V78.186H36.5581V73.5349ZM41.2093 73.5349H45.8605V78.186H41.2093V73.5349ZM45.8605 73.5349H50.5116V78.186H45.8605V73.5349ZM50.5116 73.5349H55.1628V78.186H50.5116V73.5349ZM50.5116 78.186H55.1628V82.8372H50.5116V78.186ZM45.8605 78.186H50.5116V82.8372H45.8605V78.186ZM41.2093 78.186H45.8605V82.8372H41.2093V78.186ZM36.5581 82.8372H41.2093V87.4884H36.5581V82.8372ZM41.2093 82.8372H45.8605V87.4884H41.2093V82.8372ZM45.8605 82.8372H50.5116V87.4884H45.8605V82.8372ZM50.5116 82.8372H55.1628V87.4884H50.5116V82.8372ZM50.5116 87.4884H55.1628V92.1395H50.5116V87.4884ZM45.8605 87.4884H50.5116V92.1395H45.8605V87.4884ZM41.2093 87.4884H45.8605V92.1395H41.2093V87.4884ZM36.5581 87.4884H41.2093V92.1395H36.5581V87.4884ZM36.5581 92.1395H41.2093V96.7907H36.5581V92.1395ZM41.2093 92.1395H45.8605V96.7907H41.2093V92.1395ZM41.2093 96.7907H45.8605V101.442H41.2093V96.7907ZM36.5581 96.7907H41.2093V101.442H36.5581V96.7907ZM78.4186 36.3256H83.0698V40.9767H78.4186V36.3256ZM73.7674 36.3256H78.4186V40.9767H73.7674V36.3256ZM73.7674 40.9767H78.4186V45.6279H73.7674V40.9767ZM78.4186 40.9767H83.0698V45.6279H78.4186V40.9767ZM83.0698 36.3256H87.7209V40.9767H83.0698V36.3256ZM87.7209 36.3256H92.3721V40.9767H87.7209V36.3256ZM87.7209 40.9767H92.3721V45.6279H87.7209V40.9767ZM83.0698 40.9767H87.7209V45.6279H83.0698V40.9767ZM73.7674 45.6279H78.4186V50.2791H73.7674V45.6279ZM73.7674 50.2791H78.4186V54.9302H73.7674V50.2791ZM73.7674 54.9302H78.4186V59.5814H73.7674V54.9302ZM73.7674 59.5814H78.4186V64.2326H73.7674V59.5814ZM73.7674 64.2326H78.4186V68.8837H73.7674V64.2326ZM73.7674 68.8837H78.4186V73.5349H73.7674V68.8837ZM73.7674 73.5349H78.4186V78.186H73.7674V73.5349ZM73.7674 78.186H78.4186V82.8372H73.7674V78.186ZM73.7674 82.8372H78.4186V87.4884H73.7674V82.8372ZM73.7674 87.4884H78.4186V92.1395H73.7674V87.4884ZM73.7674 92.1395H78.4186V96.7907H73.7674V92.1395ZM73.7674 96.7907H78.4186V101.442H73.7674V96.7907ZM73.7674 101.442H78.4186V106.093H73.7674V101.442ZM73.7674 106.093H78.4186V110.744H73.7674V106.093ZM73.7674 110.744H78.4186V115.395H73.7674V110.744ZM73.7674 115.395H78.4186V120.047H73.7674V115.395ZM73.7674 120.047H78.4186V124.698H73.7674V120.047ZM73.7674 124.698H78.4186V129.349H73.7674V124.698ZM73.7674 129.349H78.4186V134H73.7674V129.349ZM78.4186 129.349H83.0698V134H78.4186V129.349ZM83.0698 129.349H87.7209V134H83.0698V129.349ZM87.7209 129.349H92.3721V134H87.7209V129.349ZM87.7209 124.698H92.3721V129.349H87.7209V124.698ZM87.7209 120.047H92.3721V124.698H87.7209V120.047ZM87.7209 115.395H92.3721V120.047H87.7209V115.395ZM87.7209 106.093H92.3721V110.744H87.7209V106.093ZM87.7209 101.442H92.3721V106.093H87.7209V101.442ZM87.7209 96.7907H92.3721V101.442H87.7209V96.7907ZM87.7209 92.1395H92.3721V96.7907H87.7209V92.1395ZM87.7209 87.4884H92.3721V92.1395H87.7209V87.4884ZM87.7209 82.8372H92.3721V87.4884H87.7209V82.8372ZM87.7209 110.744H92.3721V115.395H87.7209V110.744ZM83.0698 92.1395H87.7209V96.7907H83.0698V92.1395ZM83.0698 87.4884H87.7209V92.1395H83.0698V87.4884ZM87.7209 78.186H92.3721V82.8372H87.7209V78.186ZM87.7209 73.5349H92.3721V78.186H87.7209V73.5349ZM87.7209 68.8837H92.3721V73.5349H87.7209V68.8837ZM83.0698 68.8837H87.7209V73.5349H83.0698V68.8837ZM83.0698 64.2326H87.7209V68.8837H83.0698V64.2326ZM83.0698 59.5814H87.7209V64.2326H83.0698V59.5814ZM87.7209 54.9302H92.3721V59.5814H87.7209V54.9302ZM87.7209 50.2791H92.3721V54.9302H87.7209V50.2791ZM87.7209 45.6279H92.3721V50.2791H87.7209V45.6279ZM87.7209 59.5814H92.3721V64.2326H87.7209V59.5814ZM87.7209 64.2326H92.3721V68.8837H87.7209V64.2326ZM83.0698 50.2791H87.7209V54.9302H83.0698V50.2791ZM83.0698 54.9302H87.7209V59.5814H83.0698V54.9302ZM78.4186 59.5814H83.0698V64.2326H78.4186V59.5814ZM78.4186 68.8837H83.0698V73.5349H78.4186V68.8837ZM78.4186 73.5349H83.0698V78.186H78.4186V73.5349ZM83.0698 73.5349H87.7209V78.186H83.0698V73.5349ZM83.0698 78.186H87.7209V82.8372H83.0698V78.186ZM83.0698 45.6279H87.7209V50.2791H83.0698V45.6279ZM78.4186 50.2791H83.0698V54.9302H78.4186V50.2791ZM78.4186 54.9302H83.0698V59.5814H78.4186V54.9302ZM78.4186 64.2326H83.0698V68.8837H78.4186V64.2326ZM78.4186 45.6279H83.0698V50.2791H78.4186V45.6279ZM78.4186 78.186H83.0698V82.8372H78.4186V78.186ZM78.4186 82.8372H83.0698V87.4884H78.4186V82.8372ZM78.4186 87.4884H83.0698V92.1395H78.4186V87.4884ZM78.4186 92.1395H83.0698V96.7907H78.4186V92.1395ZM78.4186 96.7907H83.0698V101.442H78.4186V96.7907ZM78.4186 101.442H83.0698V106.093H78.4186V101.442ZM78.4186 106.093H83.0698V110.744H78.4186V106.093ZM78.4186 110.744H83.0698V115.395H78.4186V110.744ZM78.4186 115.395H83.0698V120.047H78.4186V115.395ZM83.0698 101.442H87.7209V106.093H83.0698V101.442ZM83.0698 96.7907H87.7209V101.442H83.0698V96.7907ZM83.0698 82.8372H87.7209V87.4884H83.0698V82.8372ZM83.0698 106.093H87.7209V110.744H83.0698V106.093ZM83.0698 110.744H87.7209V115.395H83.0698V110.744ZM83.0698 115.395H87.7209V120.047H83.0698V115.395ZM83.0698 120.047H87.7209V124.698H83.0698V120.047ZM83.0698 124.698H87.7209V129.349H83.0698V124.698ZM78.4186 124.698H83.0698V129.349H78.4186V124.698ZM78.4186 120.047H83.0698V124.698H78.4186V120.047ZM69.1163 120.047H73.7674V124.698H69.1163V120.047ZM64.4651 120.047H69.1163V124.698H64.4651V120.047ZM64.4651 115.395H69.1163V120.047H64.4651V115.395ZM69.1163 115.395H73.7674V120.047H69.1163V115.395ZM92.3721 115.395H97.0233V120.047H92.3721V115.395ZM97.0233 115.395H101.674V120.047H97.0233V115.395ZM97.0233 120.047H101.674V124.698H97.0233V120.047ZM92.3721 120.047H97.0233V124.698H92.3721V120.047ZM69.1163 68.8837H73.7674V73.5349H69.1163V68.8837ZM69.1163 64.2326H73.7674V68.8837H69.1163V64.2326ZM64.4651 64.2326H69.1163V68.8837H64.4651V64.2326ZM64.4651 68.8837H69.1163V73.5349H64.4651V68.8837ZM92.3721 64.2326H97.0233V68.8837H92.3721V64.2326ZM92.3721 68.8837H97.0233V73.5349H92.3721V68.8837ZM97.0233 68.8837H101.674V73.5349H97.0233V68.8837ZM97.0233 64.2326H101.674V68.8837H97.0233V64.2326ZM115.628 36.3256H120.279V40.9767H115.628V36.3256ZM110.977 36.3256H115.628V40.9767H110.977V36.3256ZM110.977 40.9767H115.628V45.6279H110.977V40.9767ZM115.628 40.9767H120.279V45.6279H115.628V40.9767ZM120.279 40.9767H124.93V45.6279H120.279V40.9767ZM120.279 36.3256H124.93V40.9767H120.279V36.3256ZM124.93 36.3256H129.581V40.9767H124.93V36.3256ZM124.93 40.9767H129.581V45.6279H124.93V40.9767ZM110.977 45.6279H115.628V50.2791H110.977V45.6279ZM110.977 50.2791H115.628V54.9302H110.977V50.2791ZM110.977 54.9302H115.628V59.5814H110.977V54.9302ZM110.977 64.2326H115.628V68.8837H110.977V64.2326ZM110.977 68.8837H115.628V73.5349H110.977V68.8837ZM110.977 59.5814H115.628V64.2326H110.977V59.5814ZM110.977 73.5349H115.628V78.186H110.977V73.5349ZM110.977 78.186H115.628V82.8372H110.977V78.186ZM110.977 82.8372H115.628V87.4884H110.977V82.8372ZM110.977 87.4884H115.628V92.1395H110.977V87.4884ZM110.977 92.1395H115.628V96.7907H110.977V92.1395ZM110.977 96.7907H115.628V101.442H110.977V96.7907ZM110.977 101.442H115.628V106.093H110.977V101.442ZM110.977 106.093H115.628V110.744H110.977V106.093ZM110.977 110.744H115.628V115.395H110.977V110.744ZM110.977 115.395H115.628V120.047H110.977V115.395ZM110.977 120.047H115.628V124.698H110.977V120.047ZM115.628 120.047H120.279V124.698H115.628V120.047ZM120.279 120.047H124.93V124.698H120.279V120.047ZM124.93 120.047H129.581V124.698H124.93V120.047ZM124.93 115.395H129.581V120.047H124.93V115.395ZM124.93 110.744H129.581V115.395H124.93V110.744ZM124.93 106.093H129.581V110.744H124.93V106.093ZM124.93 101.442H129.581V106.093H124.93V101.442ZM124.93 96.7907H129.581V101.442H124.93V96.7907ZM124.93 92.1395H129.581V96.7907H124.93V92.1395ZM124.93 87.4884H129.581V92.1395H124.93V87.4884ZM120.279 82.8372H124.93V87.4884H120.279V82.8372ZM120.279 78.186H124.93V82.8372H120.279V78.186ZM120.279 73.5349H124.93V78.186H120.279V73.5349ZM120.279 68.8837H124.93V73.5349H120.279V68.8837ZM124.93 78.186H129.581V82.8372H124.93V78.186ZM124.93 82.8372H129.581V87.4884H124.93V82.8372ZM124.93 73.5349H129.581V78.186H124.93V73.5349ZM124.93 68.8837H129.581V73.5349H124.93V68.8837ZM124.93 64.2326H129.581V68.8837H124.93V64.2326ZM124.93 59.5814H129.581V64.2326H124.93V59.5814ZM124.93 54.9302H129.581V59.5814H124.93V54.9302ZM124.93 50.2791H129.581V54.9302H124.93V50.2791ZM124.93 45.6279H129.581V50.2791H124.93V45.6279ZM120.279 59.5814H124.93V64.2326H120.279V59.5814ZM120.279 64.2326H124.93V68.8837H120.279V64.2326ZM120.279 54.9302H124.93V59.5814H120.279V54.9302ZM120.279 45.6279H124.93V50.2791H120.279V45.6279ZM115.628 45.6279H120.279V50.2791H115.628V45.6279ZM115.628 50.2791H120.279V54.9302H115.628V50.2791ZM115.628 54.9302H120.279V59.5814H115.628V54.9302ZM115.628 59.5814H120.279V64.2326H115.628V59.5814ZM115.628 64.2326H120.279V68.8837H115.628V64.2326ZM120.279 50.2791H124.93V54.9302H120.279V50.2791ZM115.628 68.8837H120.279V73.5349H115.628V68.8837ZM115.628 73.5349H120.279V78.186H115.628V73.5349ZM115.628 78.186H120.279V82.8372H115.628V78.186ZM115.628 82.8372H120.279V87.4884H115.628V82.8372ZM115.628 87.4884H120.279V92.1395H115.628V87.4884ZM115.628 92.1395H120.279V96.7907H115.628V92.1395ZM115.628 96.7907H120.279V101.442H115.628V96.7907ZM115.628 101.442H120.279V106.093H115.628V101.442ZM115.628 106.093H120.279V110.744H115.628V106.093ZM115.628 110.744H120.279V115.395H115.628V110.744ZM115.628 115.395H120.279V120.047H115.628V115.395ZM120.279 115.395H124.93V120.047H120.279V115.395ZM120.279 110.744H124.93V115.395H120.279V110.744ZM120.279 106.093H124.93V110.744H120.279V106.093ZM120.279 96.7907H124.93V101.442H120.279V96.7907ZM120.279 92.1395H124.93V96.7907H120.279V92.1395ZM120.279 87.4884H124.93V92.1395H120.279V87.4884ZM120.279 101.442H124.93V106.093H120.279V101.442ZM124.93 124.698H129.581V129.349H124.93V124.698ZM120.279 124.698H124.93V129.349H120.279V124.698ZM120.279 129.349H124.93V134H120.279V129.349ZM124.93 129.349H129.581V134H124.93V129.349ZM129.581 115.395H134.233V120.047H129.581V115.395ZM134.233 115.395H138.884V120.047H134.233V115.395ZM134.233 120.047H138.884V124.698H134.233V120.047ZM129.581 120.047H134.233V124.698H129.581V120.047ZM50.5116 92.1395H55.1628V96.7907H50.5116V92.1395ZM45.8605 92.1395H50.5116V96.7907H45.8605V92.1395ZM41.2093 101.442H45.8605V106.093H41.2093V101.442ZM36.5581 101.442H41.2093V106.093H36.5581V101.442ZM31.907 110.744H36.5581V115.395H31.907V110.744ZM27.2558 110.744H31.907V115.395H27.2558V110.744ZM31.907 106.093H36.5581V110.744H31.907V106.093ZM22.6047 115.395H27.2558V120.047H22.6047V115.395ZM17.9535 115.395H22.6047V120.047H17.9535V115.395ZM17.9535 120.047H22.6047V124.698H17.9535V120.047ZM22.6047 120.047H27.2558V124.698H22.6047V120.047ZM13.3023 115.395H17.9535V120.047H13.3023V115.395ZM8.65116 115.395H13.3023V120.047H8.65116V115.395ZM13.3023 120.047H17.9535V124.698H13.3023V120.047ZM31.907 124.698H36.5581V129.349H31.907V124.698ZM27.2558 124.698H31.907V129.349H27.2558V124.698ZM27.2558 129.349H31.907V134H27.2558V129.349ZM31.907 129.349H36.5581V134H31.907V129.349ZM36.5581 124.698H41.2093V129.349H36.5581V124.698ZM41.2093 124.698H45.8605V129.349H41.2093V124.698ZM41.2093 129.349H45.8605V134H41.2093V129.349ZM36.5581 129.349H41.2093V134H36.5581V129.349ZM27.2558 115.395H31.907V120.047H27.2558V115.395ZM50.5116 120.047H55.1628V124.698H50.5116V120.047ZM45.8605 120.047H50.5116V124.698H45.8605V120.047ZM50.5116 115.395H55.1628V120.047H50.5116V115.395ZM31.907 120.047H36.5581V124.698H31.907V120.047ZM27.2558 120.047H31.907V124.698H27.2558V120.047ZM55.1628 110.744H59.814V115.395H55.1628V110.744ZM59.814 106.093H64.4651V110.744H59.814V106.093ZM59.814 110.744H64.4651V115.395H59.814V110.744ZM55.1628 115.395H59.814V120.047H55.1628V115.395ZM45.8605 124.698H50.5116V129.349H45.8605V124.698ZM92.3721 124.698H97.0233V129.349H92.3721V124.698ZM129.581 124.698H134.233V129.349H129.581V124.698ZM120.279 22.3721H124.93V27.0233H120.279V22.3721ZM97.0233 22.3721H101.674V27.0233H97.0233V22.3721ZM59.814 22.3721H64.4651V27.0233H59.814V22.3721ZM83.0698 22.3721H87.7209V27.0233H83.0698V22.3721ZM31.907 22.3721H36.5581V27.0233H31.907V22.3721ZM41.2093 22.3721H45.8605V27.0233H41.2093V22.3721ZM50.5116 22.3721H55.1628V27.0233H50.5116V22.3721ZM36.5581 106.093H41.2093V110.744H36.5581V106.093ZM45.8605 96.7907H50.5116V101.442H45.8605V96.7907ZM22.6047 124.698H27.2558V129.349H22.6047V124.698ZM17.9535 124.698H22.6047V129.349H17.9535V124.698ZM22.6047 129.349H27.2558V134H22.6047V129.349ZM36.5581 17.7209H41.2093V22.3721H36.5581V17.7209ZM31.907 17.7209H36.5581V22.3721H31.907V17.7209ZM27.2558 22.3721H31.907V27.0233H27.2558V22.3721ZM8.65116 120.047H13.3023V124.698H8.65116V120.047ZM69.1163 124.698H73.7674V129.349H69.1163V124.698ZM115.628 124.698H120.279V129.349H115.628V124.698ZM162.058 73.5349H166.709V78.186H162.058V73.5349ZM166.709 73.5349H171.36V78.186H166.709V73.5349ZM166.709 78.186H171.36V82.8372H166.709V78.186ZM171.36 73.5349H176.011V78.186H171.36V73.5349ZM157.407 73.5349H162.058V78.186H157.407V73.5349ZM157.407 78.186H162.058V82.8372H157.407V78.186ZM157.407 87.4884H162.058V92.1395H157.407V87.4884ZM157.407 92.1395H162.058V96.7907H157.407V92.1395ZM157.407 96.7907H162.058V101.442H157.407V96.7907ZM157.407 101.442H162.058V106.093H157.407V101.442ZM157.407 106.093H162.058V110.744H157.407V106.093ZM157.407 110.744H162.058V115.395H157.407V110.744ZM162.058 110.744H166.709V115.395H162.058V110.744ZM166.709 110.744H171.36V115.395H166.709V110.744ZM166.709 106.093H171.36V110.744H166.709V106.093ZM171.36 106.093H176.011V110.744H171.36V106.093ZM171.36 101.442H176.011V106.093H171.36V101.442ZM171.36 92.1395H176.011V96.7907H171.36V92.1395ZM171.36 87.4884H176.011V92.1395H171.36V87.4884ZM171.36 82.8372H176.011V87.4884H171.36V82.8372ZM171.36 78.186H176.011V82.8372H171.36V78.186ZM166.709 82.8372H171.36V87.4884H166.709V82.8372ZM166.709 87.4884H171.36V92.1395H166.709V87.4884ZM166.709 92.1395H171.36V96.7907H166.709V92.1395ZM166.709 96.7907H171.36V101.442H166.709V96.7907ZM166.709 101.442H171.36V106.093H166.709V101.442ZM171.36 96.7907H176.011V101.442H171.36V96.7907ZM162.058 96.7907H166.709V101.442H162.058V96.7907ZM162.058 92.1395H166.709V96.7907H162.058V92.1395ZM162.058 87.4884H166.709V92.1395H162.058V87.4884ZM162.058 82.8372H166.709V87.4884H162.058V82.8372ZM162.058 78.186H166.709V82.8372H162.058V78.186ZM157.407 82.8372H162.058V87.4884H157.407V82.8372ZM162.058 101.442H166.709V106.093H162.058V101.442ZM162.058 106.093H166.709V110.744H162.058V106.093ZM152.755 120.047H157.407V124.698H152.755V120.047ZM148.104 120.047H152.755V124.698H148.104V120.047ZM148.104 115.395H152.755V120.047H148.104V115.395ZM152.755 115.395H157.407V120.047H152.755V115.395ZM157.407 115.395H162.058V120.047H157.407V115.395ZM157.407 120.047H162.058V124.698H157.407V120.047ZM162.058 120.047H166.709V124.698H162.058V120.047ZM166.709 120.047H171.36V124.698H166.709V120.047ZM171.36 120.047H176.011V124.698H171.36V120.047ZM171.36 115.395H176.011V120.047H171.36V115.395ZM171.36 110.744H176.011V115.395H171.36V110.744ZM166.709 115.395H171.36V120.047H166.709V115.395ZM162.058 115.395H166.709V120.047H162.058V115.395ZM166.709 124.698H171.36V129.349H166.709V124.698ZM166.709 129.349H171.36V134H166.709V129.349ZM171.36 129.349H176.011V134H171.36V129.349ZM171.36 124.698H176.011V129.349H171.36V124.698ZM176.011 120.047H180.662V124.698H176.011V120.047ZM176.011 115.395H180.662V120.047H176.011V115.395ZM180.662 115.395H185.314V120.047H180.662V115.395ZM180.662 120.047H185.314V124.698H180.662V120.047ZM180.662 124.698H185.314V129.349H180.662V124.698ZM180.662 129.349H185.314V134H180.662V129.349ZM176.011 129.349H180.662V134H176.011V129.349ZM176.011 124.698H180.662V129.349H176.011V124.698ZM185.314 115.395H189.965V120.047H185.314V115.395ZM189.965 115.395H194.616V120.047H189.965V115.395ZM189.965 120.047H194.616V124.698H189.965V120.047ZM185.314 120.047H189.965V124.698H185.314V120.047ZM194.616 115.395H199.267V120.047H194.616V115.395ZM199.267 115.395H203.918V120.047H199.267V115.395ZM194.616 120.047H199.267V124.698H194.616V120.047ZM194.616 110.744H199.267V115.395H194.616V110.744ZM194.616 106.093H199.267V110.744H194.616V106.093ZM199.267 106.093H203.918V110.744H199.267V106.093ZM199.267 110.744H203.918V115.395H199.267V110.744ZM203.918 106.093H208.569V110.744H203.918V106.093ZM208.569 101.442H213.221V106.093H208.569V101.442ZM208.569 96.7907H213.221V101.442H208.569V96.7907ZM208.569 92.1395H213.221V96.7907H208.569V92.1395ZM203.918 92.1395H208.569V96.7907H203.918V92.1395ZM199.267 92.1395H203.918V96.7907H199.267V92.1395ZM199.267 96.7907H203.918V101.442H199.267V96.7907ZM194.616 96.7907H199.267V101.442H194.616V96.7907ZM194.616 101.442H199.267V106.093H194.616V101.442ZM199.267 101.442H203.918V106.093H199.267V101.442ZM203.918 101.442H208.569V106.093H203.918V101.442ZM203.918 96.7907H208.569V101.442H203.918V96.7907ZM194.616 92.1395H199.267V96.7907H194.616V92.1395ZM194.616 87.4884H199.267V92.1395H194.616V87.4884ZM199.267 87.4884H203.918V92.1395H199.267V87.4884ZM199.267 82.8372H203.918V87.4884H199.267V82.8372ZM203.918 82.8372H208.569V87.4884H203.918V82.8372ZM208.569 82.8372H213.221V87.4884H208.569V82.8372ZM208.569 87.4884H213.221V92.1395H208.569V87.4884ZM203.918 87.4884H208.569V92.1395H203.918V87.4884ZM194.616 82.8372H199.267V87.4884H194.616V82.8372ZM194.616 78.186H199.267V82.8372H194.616V78.186ZM199.267 78.186H203.918V82.8372H199.267V78.186ZM199.267 73.5349H203.918V78.186H199.267V73.5349ZM203.918 73.5349H208.569V78.186H203.918V73.5349ZM208.569 73.5349H213.221V78.186H208.569V73.5349ZM208.569 78.186H213.221V82.8372H208.569V78.186ZM203.918 78.186H208.569V82.8372H203.918V78.186ZM194.616 73.5349H199.267V78.186H194.616V73.5349ZM176.011 54.9302H180.662V59.5814H176.011V54.9302ZM176.011 59.5814H180.662V64.2326H176.011V59.5814ZM180.662 59.5814H185.314V64.2326H180.662V59.5814ZM180.662 54.9302H185.314V59.5814H180.662V54.9302ZM171.36 64.2326H176.011V68.8837H171.36V64.2326ZM166.709 64.2326H171.36V68.8837H166.709V64.2326ZM171.36 68.8837H176.011V73.5349H171.36V68.8837ZM166.709 68.8837H171.36V73.5349H166.709V68.8837ZM185.314 54.9302H189.965V59.5814H185.314V54.9302ZM189.965 54.9302H194.616V59.5814H189.965V54.9302ZM189.965 59.5814H194.616V64.2326H189.965V59.5814ZM185.314 59.5814H189.965V64.2326H185.314V59.5814ZM194.616 54.9302H199.267V59.5814H194.616V54.9302ZM199.267 54.9302H203.918V59.5814H199.267V54.9302ZM199.267 59.5814H203.918V64.2326H199.267V59.5814ZM194.616 59.5814H199.267V64.2326H194.616V59.5814ZM213.221 68.8837H217.872V73.5349H213.221V68.8837ZM213.221 64.2326H217.872V68.8837H213.221V64.2326ZM217.872 64.2326H222.523V68.8837H217.872V64.2326ZM217.872 68.8837H222.523V73.5349H217.872V68.8837ZM208.569 64.2326H213.221V68.8837H208.569V64.2326ZM203.918 64.2326H208.569V68.8837H203.918V64.2326ZM199.267 64.2326H203.918V68.8837H199.267V64.2326ZM194.616 64.2326H199.267V68.8837H194.616V64.2326ZM199.267 68.8837H203.918V73.5349H199.267V68.8837ZM203.918 68.8837H208.569V73.5349H203.918V68.8837ZM208.569 68.8837H213.221V73.5349H208.569V68.8837ZM194.616 68.8837H199.267V73.5349H194.616V68.8837ZM162.058 124.698H166.709V129.349H162.058V124.698ZM203.918 59.5814H208.569V64.2326H203.918V59.5814ZM162.058 68.8837H166.709V73.5349H162.058V68.8837ZM185.314 124.698H189.965V129.349H185.314V124.698ZM203.918 110.744H208.569V115.395H203.918V110.744ZM208.569 106.093H213.221V110.744H208.569V106.093ZM208.569 110.744H213.221V115.395H208.569V110.744ZM208.569 115.395H213.221V120.047H208.569V115.395ZM203.918 115.395H208.569V120.047H203.918V115.395ZM213.221 115.395H217.872V120.047H213.221V115.395ZM217.872 115.395H222.523V120.047H217.872V115.395ZM217.872 120.047H222.523V124.698H217.872V120.047ZM213.221 120.047H217.872V124.698H213.221V120.047ZM203.918 120.047H208.569V124.698H203.918V120.047ZM199.267 120.047H203.918V124.698H199.267V120.047ZM208.569 120.047H213.221V124.698H208.569V120.047ZM203.918 124.698H208.569V129.349H203.918V124.698ZM199.267 124.698H203.918V129.349H199.267V124.698ZM208.569 124.698H213.221V129.349H208.569V124.698ZM213.221 124.698H217.872V129.349H213.221V124.698ZM208.569 129.349H213.221V134H208.569V129.349ZM199.267 129.349H203.918V134H199.267V129.349ZM203.918 129.349H208.569V134H203.918V129.349ZM171.36 59.5814H176.011V64.2326H171.36V59.5814ZM245.847 129.349H250.498V134H245.847V129.349ZM250.498 129.349H255.149V134H250.498V129.349ZM241.196 124.698H245.847V129.349H241.196V124.698ZM245.847 124.698H250.498V129.349H245.847V124.698ZM250.498 124.698H255.149V129.349H250.498V124.698ZM255.149 124.698H259.8V129.349H255.149V124.698ZM236.545 120.047H241.196V124.698H236.545V120.047ZM241.196 120.047H245.847V124.698H241.196V120.047ZM241.196 115.395H245.847V120.047H241.196V115.395ZM245.847 115.395H250.498V120.047H245.847V115.395ZM245.847 120.047H250.498V124.698H245.847V120.047ZM250.498 120.047H255.149V124.698H250.498V120.047ZM255.149 120.047H259.8V124.698H255.149V120.047ZM255.149 115.395H259.8V120.047H255.149V115.395ZM259.8 120.047H264.451V124.698H259.8V120.047ZM250.498 115.395H255.149V120.047H250.498V115.395ZM245.847 110.744H250.498V115.395H245.847V110.744ZM250.498 110.744H255.149V115.395H250.498V110.744ZM255.149 110.744H259.8V115.395H255.149V110.744ZM255.149 106.093H259.8V110.744H255.149V106.093ZM250.498 106.093H255.149V110.744H250.498V106.093ZM245.847 106.093H250.498V110.744H245.847V106.093ZM245.847 101.442H250.498V106.093H245.847V101.442ZM245.847 96.7907H250.498V101.442H245.847V96.7907ZM245.847 92.1395H250.498V96.7907H245.847V92.1395ZM245.847 87.4884H250.498V92.1395H245.847V87.4884ZM245.847 82.8372H250.498V87.4884H245.847V82.8372ZM250.498 82.8372H255.149V87.4884H250.498V82.8372ZM255.149 82.8372H259.8V87.4884H255.149V82.8372ZM255.149 87.4884H259.8V92.1395H255.149V87.4884ZM255.149 92.1395H259.8V96.7907H255.149V92.1395ZM255.149 96.7907H259.8V101.442H255.149V96.7907ZM250.498 96.7907H255.149V101.442H250.498V96.7907ZM250.498 101.442H255.149V106.093H250.498V101.442ZM250.498 92.1395H255.149V96.7907H250.498V92.1395ZM250.498 87.4884H255.149V92.1395H250.498V87.4884ZM255.149 101.442H259.8V106.093H255.149V101.442ZM255.149 78.186H259.8V82.8372H255.149V78.186ZM255.149 73.5349H259.8V78.186H255.149V73.5349ZM255.149 68.8837H259.8V73.5349H255.149V68.8837ZM255.149 64.2326H259.8V68.8837H255.149V64.2326ZM245.847 59.5814H250.498V64.2326H245.847V59.5814ZM250.498 64.2326H255.149V68.8837H250.498V64.2326ZM250.498 68.8837H255.149V73.5349H250.498V68.8837ZM250.498 73.5349H255.149V78.186H250.498V73.5349ZM250.498 78.186H255.149V82.8372H250.498V78.186ZM245.847 78.186H250.498V82.8372H245.847V78.186ZM245.847 73.5349H250.498V78.186H245.847V73.5349ZM245.847 68.8837H250.498V73.5349H245.847V68.8837ZM245.847 64.2326H250.498V68.8837H245.847V64.2326ZM241.196 110.744H245.847V115.395H241.196V110.744ZM241.196 106.093H245.847V110.744H241.196V106.093ZM241.196 101.442H245.847V106.093H241.196V101.442ZM241.196 96.7907H245.847V101.442H241.196V96.7907ZM241.196 92.1395H245.847V96.7907H241.196V92.1395ZM241.196 87.4884H245.847V92.1395H241.196V87.4884ZM241.196 82.8372H245.847V87.4884H241.196V82.8372ZM241.196 78.186H245.847V82.8372H241.196V78.186ZM241.196 73.5349H245.847V78.186H241.196V73.5349ZM241.196 68.8837H245.847V73.5349H241.196V68.8837ZM241.196 59.5814H245.847V64.2326H241.196V59.5814ZM241.196 64.2326H245.847V68.8837H241.196V64.2326ZM236.545 64.2326H241.196V68.8837H236.545V64.2326ZM231.893 68.8837H236.545V73.5349H231.893V68.8837ZM236.545 68.8837H241.196V73.5349H236.545V68.8837ZM231.893 115.395H236.545V120.047H231.893V115.395ZM236.545 115.395H241.196V120.047H236.545V115.395ZM231.893 64.2326H236.545V68.8837H231.893V64.2326ZM259.8 115.395H264.451V120.047H259.8V115.395ZM231.893 120.047H236.545V124.698H231.893V120.047ZM241.196 129.349H245.847V134H241.196V129.349ZM236.545 59.5814H241.196V64.2326H236.545V59.5814ZM259.8 59.5814H264.451V64.2326H259.8V59.5814ZM264.451 54.9302H269.103V59.5814H264.451V54.9302ZM264.451 59.5814H269.103V64.2326H264.451V59.5814ZM269.103 59.5814H273.754V64.2326H269.103V59.5814ZM269.103 54.9302H273.754V59.5814H269.103V54.9302ZM273.754 54.9302H278.405V59.5814H273.754V54.9302ZM273.754 59.5814H278.405V64.2326H273.754V59.5814ZM278.405 59.5814H283.056V64.2326H278.405V59.5814ZM278.405 54.9302H283.056V59.5814H278.405V54.9302ZM283.056 59.5814H287.707V64.2326H283.056V59.5814ZM273.754 64.2326H278.405V68.8837H273.754V64.2326ZM269.103 64.2326H273.754V68.8837H269.103V64.2326ZM273.754 68.8837H278.405V73.5349H273.754V68.8837ZM278.405 68.8837H283.056V73.5349H278.405V68.8837ZM283.056 68.8837H287.707V73.5349H283.056V68.8837ZM283.056 64.2326H287.707V68.8837H283.056V64.2326ZM278.405 64.2326H283.056V68.8837H278.405V64.2326ZM245.847 54.9302H250.498V59.5814H245.847V54.9302ZM241.196 54.9302H245.847V59.5814H241.196V54.9302ZM259.8 64.2326H264.451V68.8837H259.8V64.2326ZM255.149 59.5814H259.8V64.2326H255.149V59.5814ZM259.8 54.9302H264.451V59.5814H259.8V54.9302ZM306.394 129.349H311.045V134H306.394V129.349ZM311.045 129.349H315.696V134H311.045V129.349ZM301.743 124.698H306.394V129.349H301.743V124.698ZM306.394 124.698H311.045V129.349H306.394V124.698ZM311.045 124.698H315.696V129.349H311.045V124.698ZM315.696 124.698H320.347V129.349H315.696V124.698ZM297.091 120.047H301.743V124.698H297.091V120.047ZM301.743 120.047H306.394V124.698H301.743V120.047ZM301.743 115.395H306.394V120.047H301.743V115.395ZM306.394 115.395H311.045V120.047H306.394V115.395ZM306.394 120.047H311.045V124.698H306.394V120.047ZM311.045 120.047H315.696V124.698H311.045V120.047ZM315.696 120.047H320.347V124.698H315.696V120.047ZM315.696 115.395H320.347V120.047H315.696V115.395ZM320.347 120.047H324.998V124.698H320.347V120.047ZM311.045 115.395H315.696V120.047H311.045V115.395ZM306.394 110.744H311.045V115.395H306.394V110.744ZM311.045 110.744H315.696V115.395H311.045V110.744ZM315.696 110.744H320.347V115.395H315.696V110.744ZM315.696 106.093H320.347V110.744H315.696V106.093ZM311.045 106.093H315.696V110.744H311.045V106.093ZM306.394 106.093H311.045V110.744H306.394V106.093ZM306.394 101.442H311.045V106.093H306.394V101.442ZM306.394 96.7907H311.045V101.442H306.394V96.7907ZM306.394 92.1395H311.045V96.7907H306.394V92.1395ZM306.394 87.4884H311.045V92.1395H306.394V87.4884ZM306.394 82.8372H311.045V87.4884H306.394V82.8372ZM311.045 82.8372H315.696V87.4884H311.045V82.8372ZM315.696 82.8372H320.347V87.4884H315.696V82.8372ZM315.696 87.4884H320.347V92.1395H315.696V87.4884ZM315.696 92.1395H320.347V96.7907H315.696V92.1395ZM315.696 96.7907H320.347V101.442H315.696V96.7907ZM311.045 96.7907H315.696V101.442H311.045V96.7907ZM311.045 101.442H315.696V106.093H311.045V101.442ZM311.045 92.1395H315.696V96.7907H311.045V92.1395ZM311.045 87.4884H315.696V92.1395H311.045V87.4884ZM315.696 101.442H320.347V106.093H315.696V101.442ZM315.696 78.186H320.347V82.8372H315.696V78.186ZM315.696 73.5349H320.347V78.186H315.696V73.5349ZM315.696 68.8837H320.347V73.5349H315.696V68.8837ZM315.696 64.2326H320.347V68.8837H315.696V64.2326ZM315.696 59.5814H320.347V64.2326H315.696V59.5814ZM315.696 54.9302H320.347V59.5814H315.696V54.9302ZM315.696 45.6279H320.347V50.2791H315.696V45.6279ZM315.696 40.9767H320.347V45.6279H315.696V40.9767ZM315.696 36.3256H320.347V40.9767H315.696V36.3256ZM315.696 31.6744H320.347V36.3256H315.696V31.6744ZM315.696 27.0233H320.347V31.6744H315.696V27.0233ZM315.696 22.3721H320.347V27.0233H315.696V22.3721ZM315.696 17.7209H320.347V22.3721H315.696V17.7209ZM306.394 27.0233H311.045V31.6744H306.394V27.0233ZM306.394 31.6744H311.045V36.3256H306.394V31.6744ZM306.394 36.3256H311.045V40.9767H306.394V36.3256ZM306.394 40.9767H311.045V45.6279H306.394V40.9767ZM306.394 45.6279H311.045V50.2791H306.394V45.6279ZM306.394 54.9302H311.045V59.5814H306.394V54.9302ZM306.394 59.5814H311.045V64.2326H306.394V59.5814ZM311.045 64.2326H315.696V68.8837H311.045V64.2326ZM311.045 68.8837H315.696V73.5349H311.045V68.8837ZM311.045 73.5349H315.696V78.186H311.045V73.5349ZM311.045 78.186H315.696V82.8372H311.045V78.186ZM306.394 78.186H311.045V82.8372H306.394V78.186ZM306.394 73.5349H311.045V78.186H306.394V73.5349ZM306.394 68.8837H311.045V73.5349H306.394V68.8837ZM306.394 64.2326H311.045V68.8837H306.394V64.2326ZM311.045 59.5814H315.696V64.2326H311.045V59.5814ZM311.045 54.9302H315.696V59.5814H311.045V54.9302ZM311.045 45.6279H315.696V50.2791H311.045V45.6279ZM311.045 40.9767H315.696V45.6279H311.045V40.9767ZM311.045 36.3256H315.696V40.9767H311.045V36.3256ZM311.045 31.6744H315.696V36.3256H311.045V31.6744ZM311.045 27.0233H315.696V31.6744H311.045V27.0233ZM311.045 22.3721H315.696V27.0233H311.045V22.3721ZM301.743 110.744H306.394V115.395H301.743V110.744ZM301.743 106.093H306.394V110.744H301.743V106.093ZM301.743 101.442H306.394V106.093H301.743V101.442ZM301.743 96.7907H306.394V101.442H301.743V96.7907ZM301.743 92.1395H306.394V96.7907H301.743V92.1395ZM301.743 87.4884H306.394V92.1395H301.743V87.4884ZM301.743 82.8372H306.394V87.4884H301.743V82.8372ZM301.743 78.186H306.394V82.8372H301.743V78.186ZM301.743 73.5349H306.394V78.186H301.743V73.5349ZM301.743 68.8837H306.394V73.5349H301.743V68.8837ZM301.743 59.5814H306.394V64.2326H301.743V59.5814ZM301.743 45.6279H306.394V50.2791H301.743V45.6279ZM301.743 40.9767H306.394V45.6279H301.743V40.9767ZM301.743 36.3256H306.394V40.9767H301.743V36.3256ZM301.743 54.9302H306.394V59.5814H301.743V54.9302ZM301.743 64.2326H306.394V68.8837H301.743V64.2326ZM301.743 31.6744H306.394V36.3256H301.743V31.6744ZM301.743 50.2791H306.394V54.9302H301.743V50.2791ZM306.394 50.2791H311.045V54.9302H306.394V50.2791ZM311.045 50.2791H315.696V54.9302H311.045V50.2791ZM315.696 50.2791H320.347V54.9302H315.696V50.2791ZM324.998 115.395H329.65V120.047H324.998V115.395ZM292.44 115.395H297.091V120.047H292.44V115.395ZM297.091 115.395H301.743V120.047H297.091V115.395ZM320.347 115.395H324.998V120.047H320.347V115.395ZM301.743 129.349H306.394V134H301.743V129.349ZM292.44 120.047H297.091V124.698H292.44V120.047ZM329.65 59.5814H334.301V64.2326H329.65V59.5814ZM329.65 64.2326H334.301V68.8837H329.65V64.2326ZM334.301 59.5814H338.952V64.2326H334.301V59.5814ZM338.952 59.5814H343.603V64.2326H338.952V59.5814ZM343.603 59.5814H348.254V64.2326H343.603V59.5814ZM343.603 64.2326H348.254V68.8837H343.603V64.2326ZM338.952 64.2326H343.603V68.8837H338.952V64.2326ZM324.998 68.8837H329.65V73.5349H324.998V68.8837ZM320.347 68.8837H324.998V73.5349H320.347V68.8837ZM320.347 73.5349H324.998V78.186H320.347V73.5349ZM343.603 68.8837H348.254V73.5349H343.603V68.8837ZM343.603 73.5349H348.254V78.186H343.603V73.5349ZM338.952 73.5349H343.603V78.186H338.952V73.5349ZM338.952 68.8837H343.603V73.5349H338.952V68.8837ZM343.603 78.186H348.254V82.8372H343.603V78.186ZM334.301 87.4884H338.952V92.1395H334.301V87.4884ZM334.301 92.1395H338.952V96.7907H334.301V92.1395ZM329.65 92.1395H334.301V96.7907H329.65V92.1395ZM329.65 87.4884H334.301V92.1395H329.65V87.4884ZM324.998 87.4884H329.65V92.1395H324.998V87.4884ZM320.347 87.4884H324.998V92.1395H320.347V87.4884ZM320.347 92.1395H324.998V96.7907H320.347V92.1395ZM324.998 92.1395H329.65V96.7907H324.998V92.1395ZM338.952 101.442H343.603V106.093H338.952V101.442ZM343.603 101.442H348.254V106.093H343.603V101.442ZM338.952 96.7907H343.603V101.442H338.952V96.7907ZM338.952 106.093H343.603V110.744H338.952V106.093ZM343.603 106.093H348.254V110.744H343.603V106.093ZM338.952 115.395H343.603V120.047H338.952V115.395ZM343.603 115.395H348.254V120.047H343.603V115.395ZM343.603 120.047H348.254V124.698H343.603V120.047ZM338.952 120.047H343.603V124.698H338.952V120.047ZM352.905 115.395H357.557V120.047H352.905V115.395ZM352.905 120.047H357.557V124.698H352.905V120.047ZM348.254 120.047H352.905V124.698H348.254V120.047ZM348.254 115.395H352.905V120.047H348.254V115.395ZM362.208 115.395H366.859V120.047H362.208V115.395ZM357.557 115.395H362.208V120.047H357.557V115.395ZM357.557 120.047H362.208V124.698H357.557V120.047ZM352.905 124.698H357.557V129.349H352.905V124.698ZM348.254 124.698H352.905V129.349H348.254V124.698ZM348.254 129.349H352.905V134H348.254V129.349ZM348.254 73.5349H352.905V78.186H348.254V73.5349ZM352.905 68.8837H357.557V73.5349H352.905V68.8837ZM348.254 68.8837H352.905V73.5349H348.254V68.8837ZM338.952 110.744H343.603V115.395H338.952V110.744ZM343.603 110.744H348.254V115.395H343.603V110.744ZM343.603 124.698H348.254V129.349H343.603V124.698ZM343.603 129.349H348.254V134H343.603V129.349ZM338.952 124.698H343.603V129.349H338.952V124.698ZM334.301 96.7907H338.952V101.442H334.301V96.7907ZM324.998 64.2326H329.65V68.8837H324.998V64.2326ZM348.254 64.2326H352.905V68.8837H348.254V64.2326ZM338.952 54.9302H343.603V59.5814H338.952V54.9302ZM334.301 54.9302H338.952V59.5814H334.301V54.9302ZM334.301 64.2326H338.952V68.8837H334.301V64.2326ZM334.301 68.8837H338.952V73.5349H334.301V68.8837ZM338.952 82.8372H343.603V87.4884H338.952V82.8372ZM357.557 64.2326H362.208V68.8837H357.557V64.2326ZM362.208 59.5814H366.859V64.2326H362.208V59.5814ZM338.952 87.4884H343.603V92.1395H338.952V87.4884ZM343.603 82.8372H348.254V87.4884H343.603V82.8372ZM348.254 78.186H352.905V82.8372H348.254V78.186ZM352.905 73.5349H357.557V78.186H352.905V73.5349ZM357.557 68.8837H362.208V73.5349H357.557V68.8837ZM362.208 64.2326H366.859V68.8837H362.208V64.2326ZM390.183 82.8372H394.834V87.4884H390.183V82.8372ZM390.183 78.186H394.834V82.8372H390.183V78.186ZM394.834 78.186H399.485V82.8372H394.834V78.186ZM394.834 82.8372H399.485V87.4884H394.834V82.8372ZM394.834 73.5349H399.485V78.186H394.834V73.5349ZM390.183 73.5349H394.834V78.186H390.183V73.5349ZM380.88 82.8372H385.532V87.4884H380.88V82.8372ZM385.532 82.8372H390.183V87.4884H385.532V82.8372ZM399.485 82.8372H404.136V87.4884H399.485V82.8372ZM404.136 82.8372H408.787V87.4884H404.136V82.8372ZM408.787 82.8372H413.439V87.4884H408.787V82.8372ZM413.439 82.8372H418.09V87.4884H413.439V82.8372ZM418.09 82.8372H422.741V87.4884H418.09V82.8372ZM422.741 82.8372H427.392V87.4884H422.741V82.8372ZM399.485 73.5349H404.136V78.186H399.485V73.5349ZM404.136 73.5349H408.787V78.186H404.136V73.5349ZM404.136 78.186H408.787V82.8372H404.136V78.186ZM399.485 78.186H404.136V82.8372H399.485V78.186ZM408.787 73.5349H413.439V78.186H408.787V73.5349ZM413.439 73.5349H418.09V78.186H413.439V73.5349ZM413.439 78.186H418.09V82.8372H413.439V78.186ZM408.787 78.186H413.439V82.8372H408.787V78.186ZM418.09 73.5349H422.741V78.186H418.09V73.5349ZM422.741 73.5349H427.392V78.186H422.741V73.5349ZM422.741 78.186H427.392V82.8372H422.741V78.186ZM418.09 78.186H422.741V82.8372H418.09V78.186ZM427.392 78.186H432.043V82.8372H427.392V78.186ZM432.043 78.186H436.694V82.8372H432.043V78.186ZM432.043 73.5349H436.694V78.186H432.043V73.5349ZM427.392 73.5349H432.043V78.186H427.392V73.5349ZM427.392 82.8372H432.043V87.4884H427.392V82.8372ZM436.694 73.5349H441.346V78.186H436.694V73.5349ZM385.532 78.186H390.183V82.8372H385.532V78.186ZM376.229 87.4884H380.88V92.1395H376.229V87.4884ZM380.88 87.4884H385.532V92.1395H380.88V87.4884ZM385.532 87.4884H390.183V92.1395H385.532V87.4884ZM390.183 87.4884H394.834V92.1395H390.183V87.4884ZM394.834 87.4884H399.485V92.1395H394.834V87.4884ZM399.485 87.4884H404.136V92.1395H399.485V87.4884ZM404.136 87.4884H408.787V92.1395H404.136V87.4884ZM408.787 87.4884H413.439V92.1395H408.787V87.4884ZM413.439 87.4884H418.09V92.1395H413.439V87.4884ZM418.09 87.4884H422.741V92.1395H418.09V87.4884ZM422.741 87.4884H427.392V92.1395H422.741V87.4884ZM464.597 73.5349H469.248V78.186H464.597V73.5349ZM469.248 73.5349H473.899V78.186H469.248V73.5349ZM469.248 78.186H473.899V82.8372H469.248V78.186ZM473.899 73.5349H478.55V78.186H473.899V73.5349ZM459.946 73.5349H464.597V78.186H459.946V73.5349ZM459.946 78.186H464.597V82.8372H459.946V78.186ZM459.946 87.4884H464.597V92.1395H459.946V87.4884ZM459.946 92.1395H464.597V96.7907H459.946V92.1395ZM459.946 96.7907H464.597V101.442H459.946V96.7907ZM459.946 101.442H464.597V106.093H459.946V101.442ZM459.946 106.093H464.597V110.744H459.946V106.093ZM459.946 110.744H464.597V115.395H459.946V110.744ZM464.597 110.744H469.248V115.395H464.597V110.744ZM469.248 110.744H473.899V115.395H469.248V110.744ZM469.248 106.093H473.899V110.744H469.248V106.093ZM473.899 106.093H478.55V110.744H473.899V106.093ZM473.899 101.442H478.55V106.093H473.899V101.442ZM473.899 92.1395H478.55V96.7907H473.899V92.1395ZM473.899 87.4884H478.55V92.1395H473.899V87.4884ZM473.899 82.8372H478.55V87.4884H473.899V82.8372ZM473.899 78.186H478.55V82.8372H473.899V78.186ZM469.248 82.8372H473.899V87.4884H469.248V82.8372ZM469.248 87.4884H473.899V92.1395H469.248V87.4884ZM469.248 92.1395H473.899V96.7907H469.248V92.1395ZM469.248 96.7907H473.899V101.442H469.248V96.7907ZM469.248 101.442H473.899V106.093H469.248V101.442ZM473.899 96.7907H478.55V101.442H473.899V96.7907ZM464.597 96.7907H469.248V101.442H464.597V96.7907ZM464.597 92.1395H469.248V96.7907H464.597V92.1395ZM464.597 87.4884H469.248V92.1395H464.597V87.4884ZM464.597 82.8372H469.248V87.4884H464.597V82.8372ZM464.597 78.186H469.248V82.8372H464.597V78.186ZM459.946 82.8372H464.597V87.4884H459.946V82.8372ZM464.597 101.442H469.248V106.093H464.597V101.442ZM464.597 106.093H469.248V110.744H464.597V106.093ZM455.295 120.047H459.946V124.698H455.295V120.047ZM450.643 120.047H455.295V124.698H450.643V120.047ZM450.643 115.395H455.295V120.047H450.643V115.395ZM455.295 115.395H459.946V120.047H455.295V115.395ZM459.946 115.395H464.597V120.047H459.946V115.395ZM459.946 120.047H464.597V124.698H459.946V120.047ZM464.597 120.047H469.248V124.698H464.597V120.047ZM469.248 120.047H473.899V124.698H469.248V120.047ZM473.899 120.047H478.55V124.698H473.899V120.047ZM473.899 115.395H478.55V120.047H473.899V115.395ZM473.899 110.744H478.55V115.395H473.899V110.744ZM469.248 115.395H473.899V120.047H469.248V115.395ZM464.597 115.395H469.248V120.047H464.597V115.395ZM469.248 124.698H473.899V129.349H469.248V124.698ZM469.248 129.349H473.899V134H469.248V129.349ZM473.899 129.349H478.55V134H473.899V129.349ZM473.899 124.698H478.55V129.349H473.899V124.698ZM478.55 120.047H483.201V124.698H478.55V120.047ZM478.55 115.395H483.201V120.047H478.55V115.395ZM483.201 115.395H487.853V120.047H483.201V115.395ZM483.201 120.047H487.853V124.698H483.201V120.047ZM483.201 124.698H487.853V129.349H483.201V124.698ZM483.201 129.349H487.853V134H483.201V129.349ZM478.55 129.349H483.201V134H478.55V129.349ZM478.55 124.698H483.201V129.349H478.55V124.698ZM487.853 115.395H492.504V120.047H487.853V115.395ZM492.504 115.395H497.155V120.047H492.504V115.395ZM492.504 120.047H497.155V124.698H492.504V120.047ZM487.853 120.047H492.504V124.698H487.853V120.047ZM497.155 115.395H501.806V120.047H497.155V115.395ZM501.806 115.395H506.457V120.047H501.806V115.395ZM497.155 120.047H501.806V124.698H497.155V120.047ZM497.155 110.744H501.806V115.395H497.155V110.744ZM497.155 106.093H501.806V110.744H497.155V106.093ZM501.806 106.093H506.457V110.744H501.806V106.093ZM501.806 110.744H506.457V115.395H501.806V110.744ZM506.457 106.093H511.108V110.744H506.457V106.093ZM511.108 101.442H515.76V106.093H511.108V101.442ZM511.108 96.7907H515.76V101.442H511.108V96.7907ZM511.108 92.1395H515.76V96.7907H511.108V92.1395ZM506.457 92.1395H511.108V96.7907H506.457V92.1395ZM501.806 92.1395H506.457V96.7907H501.806V92.1395ZM501.806 96.7907H506.457V101.442H501.806V96.7907ZM497.155 96.7907H501.806V101.442H497.155V96.7907ZM497.155 101.442H501.806V106.093H497.155V101.442ZM501.806 101.442H506.457V106.093H501.806V101.442ZM506.457 101.442H511.108V106.093H506.457V101.442ZM506.457 96.7907H511.108V101.442H506.457V96.7907ZM497.155 92.1395H501.806V96.7907H497.155V92.1395ZM497.155 87.4884H501.806V92.1395H497.155V87.4884ZM501.806 87.4884H506.457V92.1395H501.806V87.4884ZM501.806 82.8372H506.457V87.4884H501.806V82.8372ZM506.457 82.8372H511.108V87.4884H506.457V82.8372ZM511.108 82.8372H515.76V87.4884H511.108V82.8372ZM511.108 87.4884H515.76V92.1395H511.108V87.4884ZM506.457 87.4884H511.108V92.1395H506.457V87.4884ZM497.155 82.8372H501.806V87.4884H497.155V82.8372ZM497.155 78.186H501.806V82.8372H497.155V78.186ZM501.806 78.186H506.457V82.8372H501.806V78.186ZM501.806 73.5349H506.457V78.186H501.806V73.5349ZM506.457 73.5349H511.108V78.186H506.457V73.5349ZM511.108 73.5349H515.76V78.186H511.108V73.5349ZM511.108 78.186H515.76V82.8372H511.108V78.186ZM506.457 78.186H511.108V82.8372H506.457V78.186ZM497.155 73.5349H501.806V78.186H497.155V73.5349ZM478.55 54.9302H483.201V59.5814H478.55V54.9302ZM478.55 59.5814H483.201V64.2326H478.55V59.5814ZM483.201 59.5814H487.853V64.2326H483.201V59.5814ZM483.201 54.9302H487.853V59.5814H483.201V54.9302ZM473.899 64.2326H478.55V68.8837H473.899V64.2326ZM469.248 64.2326H473.899V68.8837H469.248V64.2326ZM473.899 68.8837H478.55V73.5349H473.899V68.8837ZM469.248 68.8837H473.899V73.5349H469.248V68.8837ZM487.853 64.2326H492.504V68.8837H487.853V64.2326ZM492.504 68.8837H497.155V73.5349H492.504V68.8837ZM492.504 64.2326H497.155V68.8837H492.504V64.2326ZM487.853 54.9302H492.504V59.5814H487.853V54.9302ZM492.504 54.9302H497.155V59.5814H492.504V54.9302ZM492.504 59.5814H497.155V64.2326H492.504V59.5814ZM487.853 59.5814H492.504V64.2326H487.853V59.5814ZM497.155 54.9302H501.806V59.5814H497.155V54.9302ZM501.806 54.9302H506.457V59.5814H501.806V54.9302ZM501.806 59.5814H506.457V64.2326H501.806V59.5814ZM497.155 59.5814H501.806V64.2326H497.155V59.5814ZM515.76 68.8837H520.411V73.5349H515.76V68.8837ZM515.76 64.2326H520.411V68.8837H515.76V64.2326ZM520.411 64.2326H525.062V68.8837H520.411V64.2326ZM520.411 68.8837H525.062V73.5349H520.411V68.8837ZM511.108 64.2326H515.76V68.8837H511.108V64.2326ZM506.457 64.2326H511.108V68.8837H506.457V64.2326ZM501.806 64.2326H506.457V68.8837H501.806V64.2326ZM497.155 64.2326H501.806V68.8837H497.155V64.2326ZM501.806 68.8837H506.457V73.5349H501.806V68.8837ZM506.457 68.8837H511.108V73.5349H506.457V68.8837ZM511.108 68.8837H515.76V73.5349H511.108V68.8837ZM497.155 68.8837H501.806V73.5349H497.155V68.8837ZM464.597 124.698H469.248V129.349H464.597V124.698ZM506.457 59.5814H511.108V64.2326H506.457V59.5814ZM464.597 68.8837H469.248V73.5349H464.597V68.8837ZM487.853 124.698H492.504V129.349H487.853V124.698ZM506.457 110.744H511.108V115.395H506.457V110.744ZM511.108 106.093H515.76V110.744H511.108V106.093ZM492.504 124.698H497.155V129.349H492.504V124.698ZM487.853 129.349H492.504V134H487.853V129.349ZM473.899 59.5814H478.55V64.2326H473.899V59.5814ZM548.386 129.349H553.037V134H548.386V129.349ZM553.037 129.349H557.688V134H553.037V129.349ZM543.735 124.698H548.386V129.349H543.735V124.698ZM548.386 124.698H553.037V129.349H548.386V124.698ZM553.037 124.698H557.688V129.349H553.037V124.698ZM557.688 124.698H562.339V129.349H557.688V124.698ZM539.084 120.047H543.735V124.698H539.084V120.047ZM543.735 120.047H548.386V124.698H543.735V120.047ZM543.735 115.395H548.386V120.047H543.735V115.395ZM548.386 115.395H553.037V120.047H548.386V115.395ZM548.386 120.047H553.037V124.698H548.386V120.047ZM553.037 120.047H557.688V124.698H553.037V120.047ZM557.688 120.047H562.339V124.698H557.688V120.047ZM557.688 115.395H562.339V120.047H557.688V115.395ZM562.339 120.047H566.991V124.698H562.339V120.047ZM553.037 115.395H557.688V120.047H553.037V115.395ZM548.386 110.744H553.037V115.395H548.386V110.744ZM553.037 110.744H557.688V115.395H553.037V110.744ZM557.688 110.744H562.339V115.395H557.688V110.744ZM557.688 106.093H562.339V110.744H557.688V106.093ZM553.037 106.093H557.688V110.744H553.037V106.093ZM548.386 106.093H553.037V110.744H548.386V106.093ZM548.386 101.442H553.037V106.093H548.386V101.442ZM548.386 96.7907H553.037V101.442H548.386V96.7907ZM548.386 92.1395H553.037V96.7907H548.386V92.1395ZM548.386 87.4884H553.037V92.1395H548.386V87.4884ZM548.386 82.8372H553.037V87.4884H548.386V82.8372ZM553.037 82.8372H557.688V87.4884H553.037V82.8372ZM557.688 82.8372H562.339V87.4884H557.688V82.8372ZM557.688 87.4884H562.339V92.1395H557.688V87.4884ZM557.688 92.1395H562.339V96.7907H557.688V92.1395ZM557.688 96.7907H562.339V101.442H557.688V96.7907ZM553.037 96.7907H557.688V101.442H553.037V96.7907ZM553.037 101.442H557.688V106.093H553.037V101.442ZM553.037 92.1395H557.688V96.7907H553.037V92.1395ZM553.037 87.4884H557.688V92.1395H553.037V87.4884ZM557.688 101.442H562.339V106.093H557.688V101.442ZM557.688 78.186H562.339V82.8372H557.688V78.186ZM557.688 73.5349H562.339V78.186H557.688V73.5349ZM557.688 68.8837H562.339V73.5349H557.688V68.8837ZM557.688 64.2326H562.339V68.8837H557.688V64.2326ZM557.688 59.5814H562.339V64.2326H557.688V59.5814ZM548.386 59.5814H553.037V64.2326H548.386V59.5814ZM553.037 64.2326H557.688V68.8837H553.037V64.2326ZM553.037 68.8837H557.688V73.5349H553.037V68.8837ZM553.037 73.5349H557.688V78.186H553.037V73.5349ZM553.037 78.186H557.688V82.8372H553.037V78.186ZM548.386 78.186H553.037V82.8372H548.386V78.186ZM548.386 73.5349H553.037V78.186H548.386V73.5349ZM548.386 68.8837H553.037V73.5349H548.386V68.8837ZM548.386 64.2326H553.037V68.8837H548.386V64.2326ZM553.037 59.5814H557.688V64.2326H553.037V59.5814ZM543.735 110.744H548.386V115.395H543.735V110.744ZM543.735 106.093H548.386V110.744H543.735V106.093ZM543.735 101.442H548.386V106.093H543.735V101.442ZM543.735 96.7907H548.386V101.442H543.735V96.7907ZM543.735 92.1395H548.386V96.7907H543.735V92.1395ZM543.735 87.4884H548.386V92.1395H543.735V87.4884ZM543.735 82.8372H548.386V87.4884H543.735V82.8372ZM543.735 78.186H548.386V82.8372H543.735V78.186ZM543.735 73.5349H548.386V78.186H543.735V73.5349ZM543.735 68.8837H548.386V73.5349H543.735V68.8837ZM543.735 59.5814H548.386V64.2326H543.735V59.5814ZM543.735 64.2326H548.386V68.8837H543.735V64.2326ZM548.386 54.9302H553.037V59.5814H548.386V54.9302ZM553.037 54.9302H557.688V59.5814H553.037V54.9302ZM539.084 64.2326H543.735V68.8837H539.084V64.2326ZM585.595 129.349H590.246V134H585.595V129.349ZM590.246 129.349H594.898V134H590.246V129.349ZM580.944 124.698H585.595V129.349H580.944V124.698ZM585.595 124.698H590.246V129.349H585.595V124.698ZM590.246 124.698H594.898V129.349H590.246V124.698ZM594.898 124.698H599.549V129.349H594.898V124.698ZM576.293 120.047H580.944V124.698H576.293V120.047ZM580.944 120.047H585.595V124.698H580.944V120.047ZM580.944 115.395H585.595V120.047H580.944V115.395ZM585.595 115.395H590.246V120.047H585.595V115.395ZM585.595 120.047H590.246V124.698H585.595V120.047ZM590.246 120.047H594.898V124.698H590.246V120.047ZM594.898 120.047H599.549V124.698H594.898V120.047ZM594.898 115.395H599.549V120.047H594.898V115.395ZM599.549 120.047H604.2V124.698H599.549V120.047ZM590.246 115.395H594.898V120.047H590.246V115.395ZM585.595 110.744H590.246V115.395H585.595V110.744ZM590.246 110.744H594.898V115.395H590.246V110.744ZM594.898 110.744H599.549V115.395H594.898V110.744ZM594.898 106.093H599.549V110.744H594.898V106.093ZM590.246 106.093H594.898V110.744H590.246V106.093ZM585.595 106.093H590.246V110.744H585.595V106.093ZM585.595 101.442H590.246V106.093H585.595V101.442ZM585.595 96.7907H590.246V101.442H585.595V96.7907ZM585.595 92.1395H590.246V96.7907H585.595V92.1395ZM585.595 87.4884H590.246V92.1395H585.595V87.4884ZM585.595 82.8372H590.246V87.4884H585.595V82.8372ZM590.246 82.8372H594.898V87.4884H590.246V82.8372ZM594.898 82.8372H599.549V87.4884H594.898V82.8372ZM594.898 87.4884H599.549V92.1395H594.898V87.4884ZM594.898 92.1395H599.549V96.7907H594.898V92.1395ZM594.898 96.7907H599.549V101.442H594.898V96.7907ZM590.246 96.7907H594.898V101.442H590.246V96.7907ZM590.246 101.442H594.898V106.093H590.246V101.442ZM590.246 92.1395H594.898V96.7907H590.246V92.1395ZM590.246 87.4884H594.898V92.1395H590.246V87.4884ZM594.898 101.442H599.549V106.093H594.898V101.442ZM594.898 78.186H599.549V82.8372H594.898V78.186ZM594.898 73.5349H599.549V78.186H594.898V73.5349ZM594.898 68.8837H599.549V73.5349H594.898V68.8837ZM594.898 64.2326H599.549V68.8837H594.898V64.2326ZM594.898 59.5814H599.549V64.2326H594.898V59.5814ZM585.595 59.5814H590.246V64.2326H585.595V59.5814ZM590.246 64.2326H594.898V68.8837H590.246V64.2326ZM590.246 68.8837H594.898V73.5349H590.246V68.8837ZM590.246 73.5349H594.898V78.186H590.246V73.5349ZM590.246 78.186H594.898V82.8372H590.246V78.186ZM585.595 78.186H590.246V82.8372H585.595V78.186ZM585.595 73.5349H590.246V78.186H585.595V73.5349ZM585.595 68.8837H590.246V73.5349H585.595V68.8837ZM585.595 64.2326H590.246V68.8837H585.595V64.2326ZM590.246 59.5814H594.898V64.2326H590.246V59.5814ZM580.944 110.744H585.595V115.395H580.944V110.744ZM580.944 106.093H585.595V110.744H580.944V106.093ZM580.944 101.442H585.595V106.093H580.944V101.442ZM580.944 96.7907H585.595V101.442H580.944V96.7907ZM580.944 92.1395H585.595V96.7907H580.944V92.1395ZM580.944 87.4884H585.595V92.1395H580.944V87.4884ZM580.944 82.8372H585.595V87.4884H580.944V82.8372ZM580.944 78.186H585.595V82.8372H580.944V78.186ZM580.944 73.5349H585.595V78.186H580.944V73.5349ZM580.944 68.8837H585.595V73.5349H580.944V68.8837ZM580.944 59.5814H585.595V64.2326H580.944V59.5814ZM580.944 64.2326H585.595V68.8837H580.944V64.2326ZM604.2 115.395H608.851V120.047H604.2V115.395ZM585.595 54.9302H590.246V59.5814H585.595V54.9302ZM590.246 54.9302H594.898V59.5814H590.246V54.9302ZM576.293 64.2326H580.944V68.8837H576.293V64.2326ZM599.549 64.2326H604.2V68.8837H599.549V64.2326ZM534.432 68.8837H539.084V73.5349H534.432V68.8837ZM539.084 68.8837H543.735V73.5349H539.084V68.8837ZM566.991 64.2326H571.642V68.8837H566.991V64.2326ZM571.642 64.2326H576.293V68.8837H571.642V64.2326ZM571.642 59.5814H576.293V64.2326H571.642V59.5814ZM576.293 59.5814H580.944V64.2326H576.293V59.5814ZM576.293 54.9302H580.944V59.5814H576.293V54.9302ZM580.944 54.9302H585.595V59.5814H580.944V54.9302ZM562.339 64.2326H566.991V68.8837H562.339V64.2326ZM576.293 68.8837H580.944V73.5349H576.293V68.8837ZM534.432 115.395H539.084V120.047H534.432V115.395ZM539.084 115.395H543.735V120.047H539.084V115.395ZM571.642 115.395H576.293V120.047H571.642V115.395ZM576.293 115.395H580.944V120.047H576.293V115.395ZM599.549 115.395H604.2V120.047H599.549V115.395ZM534.432 64.2326H539.084V68.8837H534.432V64.2326ZM604.2 68.8837H608.851V73.5349H604.2V68.8837ZM599.549 68.8837H604.2V73.5349H599.549V68.8837ZM562.339 115.395H566.991V120.047H562.339V115.395ZM604.2 64.2326H608.851V68.8837H604.2V64.2326ZM571.642 68.8837H576.293V73.5349H571.642V68.8837ZM566.991 68.8837H571.642V73.5349H566.991V68.8837ZM562.339 68.8837H566.991V73.5349H562.339V68.8837ZM571.642 120.047H576.293V124.698H571.642V120.047ZM534.432 120.047H539.084V124.698H534.432V120.047ZM543.735 129.349H548.386V134H543.735V129.349ZM580.944 129.349H585.595V134H580.944V129.349ZM539.084 59.5814H543.735V64.2326H539.084V59.5814ZM543.735 54.9302H548.386V59.5814H543.735V54.9302Z" fill="white"/>
</g>
<defs>
<clipPath id="clip0_5_7">
<rect width="627" height="155" fill="white"/>
</clipPath>
</defs>
</svg>
