<svg width="259" height="76" viewBox="0 0 259 76" fill="none" xmlns="http://www.w3.org/2000/svg">
<g clip-path="url(#clip0_1_2)">
<path d="M97.57 50.49H77.86V51.39H93.79V53.19H86.77V53.64H79.75V54.99H75.16V56.34H73.18V57.69H63.73V59.49H77.86V61.29H70.66V62.19H76.96V63.09H80.74V64.44H82.09V65.79H83.35V66.69H83.44V68.49H85.33V68.94H84.34V69.39H82.09V69.84H76.87L76.6 70.74H73.81C73.57 71.16 73.3 71.46 73 71.64H76.33C76.03 71.88 75.61 72 75.07 72H58.78C58.24 72 57.82 71.88 57.52 71.64H54.1C53.8 71.46 53.53 71.16 53.29 70.74H55.99C55.81 70.44 55.72 70.14 55.72 69.84H60.94V69.39H63.19V68.94H64.18V68.49H62.29V66.69H62.2V65.79H60.94V64.44H59.59V63.09H55.81V62.19H49.51V61.29H56.71V59.49H24.85V61.29H37.72V62.19H35.83V64.44H36.19V65.79H34.48V66.69H33.85V68.49H34.12V68.94H40.78V69.39H35.2V69.84H38.44C38.44 70.14 38.35 70.44 38.17 70.74H33.22C33.04 71.16 32.74 71.46 32.32 71.64H31.78C31.48 71.88 31.03 72 30.43 72H14.14C13.6 72 13.18 71.88 12.88 71.64H13.51C13.33 71.52 13.15 71.4 12.97 71.28C12.85 71.1 12.73 70.92 12.61 70.74H17.65C17.47 70.44 17.38 70.14 17.38 69.84H14.05V69.39H19.63V68.94H12.97V68.49H12.7V66.69H13.33V65.79H15.04V64.44H14.68V62.19H16.57V61.29H3.7V59.49H23.14V57.69H5.41V56.34H4.96V54.99H12.34V53.64H14.95V53.19H9.19V51.39H21.79V50.49H30.61L30.34 50.04H14.32V49.59H17.29V49.14H15.04V47.34H15.13V46.44H17.2V45.09H16.75V43.29H14.32V42.84H6.22V41.94H13.24V41.49H12.97V40.59H16.93V39.69H19.09V38.34H4.87V36.54H16.21V35.64H6.13V34.29H16.57V33.39H15.31V32.49H11.89V32.04H13.6V30.69H23.95V29.34H22.42V28.44H13.87V27.99H13.42V26.64H17.65V24.84H8.29V23.94H11.53V23.49H12.43V22.59H10.36V21.24H18.46V19.89H14.32V18.09H21.16V17.64H19V15.84H27.01V14.49H8.2V13.14H28.18V11.79H19.36V10.89H12.61C12.67 10.59 12.76 10.35 12.88 10.17C13.06 9.93 13.24 9.72 13.42 9.54H13.87C14.23 9.18 14.74 9 15.4 9H29.62C30.46 9 31.15 9.18 31.69 9.54H31.24C31.6 9.72 31.9 9.93 32.14 10.17C32.38 10.41 32.56 10.65 32.68 10.89H39.52L39.88 11.43L40.06 11.79H48.97L49.78 13.14H29.8L30.61 14.49H49.33L50.14 15.84H42.22L43.3 17.64H45.46L45.73 18.09H38.89L39.97 19.89H44.02L44.83 21.24H36.82L37.63 22.59H39.7L40.24 23.49H39.34L39.61 23.94H36.37L36.91 24.84H46.27L47.35 26.64H43.12L43.93 27.99H44.38L44.65 28.44H51.31L51.58 27.99H49.15L49.96 26.64H52.93L54.01 24.84H52.39L52.93 23.94H45.64L45.91 23.49H55L55.54 22.59H54.82L55.63 21.24H61.03L61.84 19.89H62.11L63.19 18.09H59.05L59.32 17.64H68.77L69.85 15.84H69.31L70.12 14.49H56.26L57.07 13.14H70.39L71.2 11.79H61.39L61.57 11.43C61.69 11.19 61.81 11.01 61.93 10.89H62.11C62.29 10.65 62.5 10.41 62.74 10.17C62.98 9.93 63.25 9.72 63.55 9.54H63.37C63.91 9.18 64.6 9 65.44 9H79.66C80.26 9 80.77 9.18 81.19 9.54H81.46C81.64 9.72 81.79 9.93 81.91 10.17C82.09 10.35 82.21 10.59 82.27 10.89H82.09V11.79H91.99V13.14H78.67V14.49H92.53V15.84H93.07V17.64H83.62V18.09H87.76V19.89H87.49V21.24H82.09V22.59H82.81V23.49H73.72V23.94H81.01V24.84H82.63V26.64H79.75V27.99H82.09V28.44H86.32V29.34H77.05V30.69H83.71V32.04H82.09V32.49H82.45V33.39H83.71V34.29H73.27V35.64H83.35V36.54H72.01V38.34H86.23V39.69H84.07V40.59H80.11V41.49H80.38V41.94H73.36V42.84H81.46V43.29H83.89V45.09H81.82V46.44H80.29V47.34H82.09V49.14H82.9V49.59H86.77V50.04H97.57V50.49ZM55.45 28.44H53.2L53.74 29.34H54.91L55.45 28.44ZM44.83 32.04L45.1 32.49H48.61L48.88 33.03L49.24 32.49H48.88L49.15 32.04H50.68L51.49 30.69H45.82L46.63 32.04H44.83ZM58.15 46.44H60.67V45.09H58.96L58.15 46.44ZM36.19 49.14H38.44V49.59H35.47V50.04H41.59L41.32 49.59H39.88L39.52 49.14H38.71L37.63 47.34H37.81L37.27 46.44H36.28V47.34H36.19V49.14ZM76.42 50.49V50.04H65.62V49.59H61.75V49.14H60.94V47.34H59.5L58.33 49.14H59.23L58.96 49.59H60.4L60.13 50.04H52.75V50.49H42.94V51.39H30.34V53.19H36.1V53.64H33.49V54.99H26.11V56.34H26.56V57.69H52.03V56.34H54.01V54.99H46.45C46.27 55.23 46.09 55.47 45.91 55.71C45.73 55.95 45.49 56.16 45.19 56.34H44.92C44.38 56.7 43.78 56.88 43.12 56.88H36.82C36.1 56.88 35.47 56.7 34.93 56.34H35.2C34.96 56.16 34.72 55.95 34.48 55.71C34.3 55.47 34.12 55.23 33.94 54.99H43.21L42.94 54.63L42.31 53.64H39.07L38.8 53.19H45.1L43.93 51.39H54.46L53.92 50.49H76.42ZM72.64 53.19V51.39H60.85L59.77 53.19H53.56L53.29 53.64H56.53L55.9 54.63L55.63 54.99H58.6V53.64H65.62V53.19H72.64ZM131.54 32.04H134.96V33.84H134.78V35.64H131.63V36.99H132.44V38.79H131.72V40.59H130.1V41.04H124.43V41.67C124.43 41.79 124.4 41.91 124.34 42.03C124.34 42.15 124.31 42.27 124.25 42.39H126.32C126.02 43.53 125.24 44.1 123.98 44.1H112.37C112.13 44.1 111.89 44.1 111.65 44.1C111.47 44.1 111.29 44.13 111.11 44.19H114.71C114.41 44.25 114.14 44.31 113.9 44.37C113.66 44.43 113.39 44.52 113.09 44.64H116.06C115.88 44.7 115.61 44.85 115.25 45.09H116.96L116.42 45.54H116.87C116.51 45.9 116.24 46.35 116.06 46.89H113.36C113.24 47.13 113.18 47.28 113.18 47.34H112.28C112.28 47.4 112.25 47.46 112.19 47.52C112.19 47.58 112.19 47.67 112.19 47.79H113.27C113.21 47.91 113.18 48.06 113.18 48.24C113.18 48.36 113.15 48.51 113.09 48.69H113.63V50.04H112.37V50.94H113.63V52.29H114.98V54.09H113V54.54H111.56V54.99H116.96V56.34H114.26V57.24H115.16V58.14H113.09V59.94H111.92V60.39H110.75V61.74H113.81V63.09H112.19V64.44H113.81V64.89H113.63V65.79H111.65V66.69H113.09V68.49H113.45V69.84H113.09C112.97 70.68 112.58 71.28 111.92 71.64H111.11C110.81 71.88 110.39 72 109.85 72H92.7501C92.2101 72 91.7901 71.88 91.4901 71.64H92.3001C91.6401 71.28 91.2501 70.68 91.1301 69.84H91.4901V68.49H91.1301V66.69H89.6901V65.79H91.6701V64.89H91.8501V64.44H90.2301V63.09H91.8501V61.74H88.7901V60.39H89.9601V59.94H91.1301V58.14H93.2001V57.24H92.3001V56.34H95.0001V54.99H89.6001V54.54H91.0401V54.09H93.0201V52.29H91.6701V50.94H90.4101V50.04H91.6701V48.69H91.1301V47.79H90.0501V47.34H90.9501V46.89H93.6501V45.54H93.2001V45.09H91.5801V44.64H88.6101V44.19H85.0101V42.39H83.0301V41.04H88.7001V40.59H90.3201V38.79H91.0401V36.99H90.2301V35.64H93.3801V33.84H93.5601V32.04H90.1401V30.69H93.0201V28.89H90.2301V28.44H91.1301V27.63C91.1301 27.33 91.1901 27 91.3101 26.64H91.2201C91.6401 25.68 92.3901 25.2 93.4701 25.2H109.22C110.24 25.2 110.96 25.68 111.38 26.64H111.56C111.68 27 111.74 27.33 111.74 27.63V28.44H110.84V28.89H113.63V29.16L113.99 28.89H114.17C114.29 28.77 114.41 28.68 114.53 28.62C114.65 28.56 114.74 28.5 114.8 28.44H114.98C116.18 27.66 117.35 27.06 118.49 26.64H118.67C119.87 26.16 121.07 25.8 122.27 25.56C123.47 25.32 124.73 25.2 126.05 25.2H130.37C131.45 25.2 132.2 25.68 132.62 26.64H132.44C132.56 27 132.62 27.33 132.62 27.63V28.44H132.53V28.89H132.35V30.69H131.54V32.04ZM189.642 70.29C189.522 70.89 189.222 71.34 188.742 71.64H194.592C194.292 71.88 193.902 72 193.422 72H174.522C173.982 72 173.472 71.88 172.992 71.64H158.502C158.202 71.88 157.782 72 157.242 72H141.492C140.952 72 140.532 71.88 140.232 71.64H152.562C152.022 71.28 151.692 70.83 151.572 70.29H138.882C138.822 70.11 138.792 69.87 138.792 69.57V68.49H135.912V67.59H138.072V65.79H136.992V63.99H137.622V62.64H138.162V61.74H137.802V60.84H136.272V59.49H137.532V58.59H138.792V56.79H137.262V55.89H136.992V55.44H137.802V54.54H137.712V54.09H137.082V52.74H139.422V51.39H141.762V50.94H139.062V49.59H137.802V48.24H137.442V47.34H137.982V45.54H137.622V43.74H137.892V43.29H137.712V42.84H137.442V42.39H137.262V40.59H136.812V40.14H139.692V38.79H137.082V38.34H141.132V36.99H136.092V36.54H138.792V36.09H145.092V34.74H136.092V32.94H137.622V31.14H138.432V30.69H138.702V29.34H136.992V28.44H137.982V26.64H137.172V25.29H138.072V23.49H137.892V22.14H137.172V20.34H138.972V19.44H137.622V18.99H135.192V18.54H132.942V16.74H134.202V16.29H136.632V14.94H130.602V14.49H141.942V14.04H140.592V13.14H125.202V12.69H122.952V10.89H143.382V10.44H136.272C136.272 10.2 136.332 9.9 136.452 9.54H129.522C129.942 8.58 130.662 8.1 131.682 8.1H147.432C148.512 8.1 149.262 8.58 149.682 9.54H156.612C156.792 9.78 156.882 10.08 156.882 10.44H163.992V10.89H143.562V12.69H145.812V13.14H161.202V14.04H162.552V14.49H151.212V14.94H157.242V16.29H154.812V16.74H153.552V18.54H155.802V18.99H158.232V19.44H159.582V20.34H157.782V22.14H158.502V23.49H158.682V25.29H157.782V26.64H158.592V28.44H157.602V29.34H159.312V30.69H159.042V31.14H158.232V32.94H156.702V34.74H165.252L166.332 32.94H161.832L163.002 31.14H163.542L163.812 30.69H163.362L164.172 29.34H165.252L165.792 28.44H165.612L166.692 26.73V26.64H165.882C166.002 26.46 166.182 26.22 166.422 25.92C166.722 25.62 167.112 25.41 167.592 25.29H168.042C168.222 25.23 168.492 25.2 168.852 25.2H187.032C187.332 25.2 187.542 25.23 187.662 25.29H187.212C187.872 25.47 188.352 25.92 188.652 26.64H189.462C189.522 26.76 189.552 26.88 189.552 27C189.612 27.12 189.642 27.24 189.642 27.36C189.642 27.72 189.522 28.08 189.282 28.44H189.462C189.462 28.5 189.402 28.59 189.282 28.71L188.832 29.34H187.842L186.852 30.69H187.392L187.032 31.14H186.492L185.232 32.94H189.642L188.382 34.74L187.392 36.09H188.202L187.932 36.54H183.252L182.892 36.99H179.292L178.302 38.34H179.742L179.472 38.79H183.612L182.982 39.69L182.622 40.14H179.832L179.472 40.59H179.922L178.662 42.39H178.842L178.482 42.84H178.842L178.482 43.29H178.662L178.392 43.74H178.122L176.862 45.54H177.222L176.682 46.26L177.402 47.34H176.862L177.402 48.24H177.762L178.662 49.59H179.922L180.822 50.94H183.522L183.882 51.39H181.452L182.352 52.74H180.012L180.912 54.09H181.542L181.812 54.54H181.902L182.532 55.44H181.902L182.172 55.89H183.522L184.062 56.79H185.142L186.312 58.59H184.602L185.142 59.49H185.052L185.862 60.84H186.582L187.122 61.74H186.402L187.032 62.64H187.932L188.742 63.99H188.382L189.552 65.79H189.102L190.272 67.59H192.432L193.062 68.49H198.012L198.102 68.67C198.342 69.03 198.462 69.42 198.462 69.84V70.29H189.642ZM159.402 36.54H156.702V36.99H159.942L160.212 36.54H164.892L165.162 36.09H159.402V36.54ZM160.302 38.79V39.69L160.842 38.79H160.302ZM174.522 70.29L173.442 68.49H168.492L167.952 67.59H165.792L164.712 65.79H165.162L164.082 63.99H164.442L163.632 62.64H162.732L162.192 61.74H162.912L162.372 60.84H161.742L160.932 59.49H161.112L160.572 58.59H162.192L161.112 56.79H160.122L159.582 55.89H158.322L158.052 55.44H157.602V55.89H157.872V56.79H159.402V58.59H158.142V59.49H156.882V60.84H158.412V61.74H158.772V62.64H158.232V63.99H157.602V65.79H158.682V67.59H156.522V68.49H159.402V69.57C159.402 69.87 159.372 70.11 159.312 70.29H174.522ZM247.474 70.29C247.354 70.89 247.054 71.34 246.574 71.64H252.424C252.124 71.88 251.734 72 251.254 72H232.354C231.814 72 231.304 71.88 230.824 71.64H216.334C216.034 71.88 215.614 72 215.074 72H199.324C198.784 72 198.364 71.88 198.064 71.64H210.394C209.854 71.28 209.524 70.83 209.404 70.29H196.714C196.654 70.11 196.624 69.87 196.624 69.57V68.49H193.744V67.59H195.904V65.79H194.824V63.99H195.454V62.64H195.994V61.74H195.634V60.84H194.104V59.49H195.364V58.59H196.624V56.79H195.094V55.89H194.824V55.44H195.634V54.54H195.544V54.09H194.914V52.74H197.254V51.39H199.594V50.94H196.894V49.59H195.634V48.24H195.274V47.34H195.814V45.54H195.454V43.74H195.724V43.29H195.544V42.84H195.274V42.39H195.094V40.59H194.644V40.14H197.524V38.79H194.914V38.34H198.964V36.99H193.924V36.54H196.624V36.09H202.924V34.74H193.924V32.94H195.454V31.14H196.264V30.69H196.534V29.34H194.824V28.44H195.814V26.64H195.004V25.29H195.904V23.49H195.724V22.14H195.004V20.34H196.804V19.44H195.454V18.99H193.024V18.54H190.774V16.74H192.034V16.29H194.464V14.94H188.434V14.49H199.774V14.04H198.424V13.14H183.034V12.69H180.784V10.89H201.214V10.44H194.104C194.104 10.2 194.164 9.9 194.284 9.54H187.354C187.774 8.58 188.494 8.1 189.514 8.1H205.264C206.344 8.1 207.094 8.58 207.514 9.54H214.444C214.624 9.78 214.714 10.08 214.714 10.44H221.824V10.89H201.394V12.69H203.644V13.14H219.034V14.04H220.384V14.49H209.044V14.94H215.074V16.29H212.644V16.74H211.384V18.54H213.634V18.99H216.064V19.44H217.414V20.34H215.614V22.14H216.334V23.49H216.514V25.29H215.614V26.64H216.424V28.44H215.434V29.34H217.144V30.69H216.874V31.14H216.064V32.94H214.534V34.74H223.084L224.164 32.94H219.664L220.834 31.14H221.374L221.644 30.69H221.194L222.004 29.34H223.084L223.624 28.44H223.444L224.524 26.73V26.64H223.714C223.834 26.46 224.014 26.22 224.254 25.92C224.554 25.62 224.944 25.41 225.424 25.29H225.874C226.054 25.23 226.324 25.2 226.684 25.2H244.864C245.164 25.2 245.374 25.23 245.494 25.29H245.044C245.704 25.47 246.184 25.92 246.484 26.64H247.294C247.354 26.76 247.384 26.88 247.384 27C247.444 27.12 247.474 27.24 247.474 27.36C247.474 27.72 247.354 28.08 247.114 28.44H247.294C247.294 28.5 247.234 28.59 247.114 28.71L246.664 29.34H245.674L244.684 30.69H245.224L244.864 31.14H244.324L243.064 32.94H247.474L246.214 34.74L245.224 36.09H246.034L245.764 36.54H241.084L240.724 36.99H237.124L236.134 38.34H237.574L237.304 38.79H241.444L240.814 39.69L240.454 40.14H237.664L237.304 40.59H237.754L236.494 42.39H236.674L236.314 42.84H236.674L236.314 43.29H236.494L236.224 43.74H235.954L234.694 45.54H235.054L234.514 46.26L235.234 47.34H234.694L235.234 48.24H235.594L236.494 49.59H237.754L238.654 50.94H241.354L241.714 51.39H239.284L240.184 52.74H237.844L238.744 54.09H239.374L239.644 54.54H239.734L240.364 55.44H239.734L240.004 55.89H241.354L241.894 56.79H242.974L244.144 58.59H242.434L242.974 59.49H242.884L243.694 60.84H244.414L244.954 61.74H244.234L244.864 62.64H245.764L246.574 63.99H246.214L247.384 65.79H246.934L248.104 67.59H250.264L250.894 68.49H255.844L255.934 68.67C256.174 69.03 256.294 69.42 256.294 69.84V70.29H247.474ZM217.234 36.54H214.534V36.99H217.774L218.044 36.54H222.724L222.994 36.09H217.234V36.54ZM218.134 38.79V39.69L218.674 38.79H218.134ZM232.354 70.29L231.274 68.49H226.324L225.784 67.59H223.624L222.544 65.79H222.994L221.914 63.99H222.274L221.464 62.64H220.564L220.024 61.74H220.744L220.204 60.84H219.574L218.764 59.49H218.944L218.404 58.59H220.024L218.944 56.79H217.954L217.414 55.89H216.154L215.884 55.44H215.434V55.89H215.704V56.79H217.234V58.59H215.974V59.49H214.714V60.84H216.244V61.74H216.604V62.64H216.064V63.99H215.434V65.79H216.514V67.59H214.354V68.49H217.234V69.57C217.234 69.87 217.204 70.11 217.144 70.29H232.354Z" fill="white"/>
<path d="M97.57 50.49H77.86V51.39H93.79V53.19H86.77V53.64H79.75V54.99H75.16V56.34H73.18V57.69H63.73V59.49H77.86V61.29H70.66V62.19H76.96V63.09H80.74V64.44H82.09V65.79H83.35V66.69H83.44V68.49H85.33V68.94H84.34V69.39H82.09V69.84H76.87L76.6 70.74H73.81C73.57 71.16 73.3 71.46 73 71.64H76.33C76.03 71.88 75.61 72 75.07 72H58.78C58.24 72 57.82 71.88 57.52 71.64H54.1C53.8 71.46 53.53 71.16 53.29 70.74H55.99C55.81 70.44 55.72 70.14 55.72 69.84H60.94V69.39H63.19V68.94H64.18V68.49H62.29V66.69H62.2V65.79H60.94V64.44H59.59V63.09H55.81V62.19H49.51V61.29H56.71V59.49H24.85V61.29H37.72V62.19H35.83V64.44H36.19V65.79H34.48V66.69H33.85V68.49H34.12V68.94H40.78V69.39H35.2V69.84H38.44C38.44 70.14 38.35 70.44 38.17 70.74H33.22C33.04 71.16 32.74 71.46 32.32 71.64H31.78C31.48 71.88 31.03 72 30.43 72H14.14C13.6 72 13.18 71.88 12.88 71.64H13.51C13.33 71.52 13.15 71.4 12.97 71.28C12.85 71.1 12.73 70.92 12.61 70.74H17.65C17.47 70.44 17.38 70.14 17.38 69.84H14.05V69.39H19.63V68.94H12.97V68.49H12.7V66.69H13.33V65.79H15.04V64.44H14.68V62.19H16.57V61.29H3.7V59.49H23.14V57.69H5.41V56.34H4.96V54.99H12.34V53.64H14.95V53.19H9.19V51.39H21.79V50.49H30.61L30.34 50.04H14.32V49.59H17.29V49.14H15.04V47.34H15.13V46.44H17.2V45.09H16.75V43.29H14.32V42.84H6.22V41.94H13.24V41.49H12.97V40.59H16.93V39.69H19.09V38.34H4.87V36.54H16.21V35.64H6.13V34.29H16.57V33.39H15.31V32.49H11.89V32.04H13.6V30.69H23.95V29.34H22.42V28.44H13.87V27.99H13.42V26.64H17.65V24.84H8.29V23.94H11.53V23.49H12.43V22.59H10.36V21.24H18.46V19.89H14.32V18.09H21.16V17.64H19V15.84H27.01V14.49H8.2V13.14H28.18V11.79H19.36V10.89H12.61C12.67 10.59 12.76 10.35 12.88 10.17C13.06 9.93 13.24 9.72 13.42 9.54H13.87C14.23 9.18 14.74 9 15.4 9H29.62C30.46 9 31.15 9.18 31.69 9.54H31.24C31.6 9.72 31.9 9.93 32.14 10.17C32.38 10.41 32.56 10.65 32.68 10.89H39.52L39.88 11.43L40.06 11.79H48.97L49.78 13.14H29.8L30.61 14.49H49.33L50.14 15.84H42.22L43.3 17.64H45.46L45.73 18.09H38.89L39.97 19.89H44.02L44.83 21.24H36.82L37.63 22.59H39.7L40.24 23.49H39.34L39.61 23.94H36.37L36.91 24.84H46.27L47.35 26.64H43.12L43.93 27.99H44.38L44.65 28.44H51.31L51.58 27.99H49.15L49.96 26.64H52.93L54.01 24.84H52.39L52.93 23.94H45.64L45.91 23.49H55L55.54 22.59H54.82L55.63 21.24H61.03L61.84 19.89H62.11L63.19 18.09H59.05L59.32 17.64H68.77L69.85 15.84H69.31L70.12 14.49H56.26L57.07 13.14H70.39L71.2 11.79H61.39L61.57 11.43C61.69 11.19 61.81 11.01 61.93 10.89H62.11C62.29 10.65 62.5 10.41 62.74 10.17C62.98 9.93 63.25 9.72 63.55 9.54H63.37C63.91 9.18 64.6 9 65.44 9H79.66C80.26 9 80.77 9.18 81.19 9.54H81.46C81.64 9.72 81.79 9.93 81.91 10.17C82.09 10.35 82.21 10.59 82.27 10.89H82.09V11.79H91.99V13.14H78.67V14.49H92.53V15.84H93.07V17.64H83.62V18.09H87.76V19.89H87.49V21.24H82.09V22.59H82.81V23.49H73.72V23.94H81.01V24.84H82.63V26.64H79.75V27.99H82.09V28.44H86.32V29.34H77.05V30.69H83.71V32.04H82.09V32.49H82.45V33.39H83.71V34.29H73.27V35.64H83.35V36.54H72.01V38.34H86.23V39.69H84.07V40.59H80.11V41.49H80.38V41.94H73.36V42.84H81.46V43.29H83.89V45.09H81.82V46.44H80.29V47.34H82.09V49.14H82.9V49.59H86.77V50.04H97.57V50.49ZM55.45 28.44H53.2L53.74 29.34H54.91L55.45 28.44ZM44.83 32.04L45.1 32.49H48.61L48.88 33.03L49.24 32.49H48.88L49.15 32.04H50.68L51.49 30.69H45.82L46.63 32.04H44.83ZM58.15 46.44H60.67V45.09H58.96L58.15 46.44ZM36.19 49.14H38.44V49.59H35.47V50.04H41.59L41.32 49.59H39.88L39.52 49.14H38.71L37.63 47.34H37.81L37.27 46.44H36.28V47.34H36.19V49.14ZM76.42 50.49V50.04H65.62V49.59H61.75V49.14H60.94V47.34H59.5L58.33 49.14H59.23L58.96 49.59H60.4L60.13 50.04H52.75V50.49H42.94V51.39H30.34V53.19H36.1V53.64H33.49V54.99H26.11V56.34H26.56V57.69H52.03V56.34H54.01V54.99H46.45C46.27 55.23 46.09 55.47 45.91 55.71C45.73 55.95 45.49 56.16 45.19 56.34H44.92C44.38 56.7 43.78 56.88 43.12 56.88H36.82C36.1 56.88 35.47 56.7 34.93 56.34H35.2C34.96 56.16 34.72 55.95 34.48 55.71C34.3 55.47 34.12 55.23 33.94 54.99H43.21L42.94 54.63L42.31 53.64H39.07L38.8 53.19H45.1L43.93 51.39H54.46L53.92 50.49H76.42ZM72.64 53.19V51.39H60.85L59.77 53.19H53.56L53.29 53.64H56.53L55.9 54.63L55.63 54.99H58.6V53.64H65.62V53.19H72.64ZM131.54 32.04H134.96V33.84H134.78V35.64H131.63V36.99H132.44V38.79H131.72V40.59H130.1V41.04H124.43V41.67C124.43 41.79 124.4 41.91 124.34 42.03C124.34 42.15 124.31 42.27 124.25 42.39H126.32C126.02 43.53 125.24 44.1 123.98 44.1H112.37C112.13 44.1 111.89 44.1 111.65 44.1C111.47 44.1 111.29 44.13 111.11 44.19H114.71C114.41 44.25 114.14 44.31 113.9 44.37C113.66 44.43 113.39 44.52 113.09 44.64H116.06C115.88 44.7 115.61 44.85 115.25 45.09H116.96L116.42 45.54H116.87C116.51 45.9 116.24 46.35 116.06 46.89H113.36C113.24 47.13 113.18 47.28 113.18 47.34H112.28C112.28 47.4 112.25 47.46 112.19 47.52C112.19 47.58 112.19 47.67 112.19 47.79H113.27C113.21 47.91 113.18 48.06 113.18 48.24C113.18 48.36 113.15 48.51 113.09 48.69H113.63V50.04H112.37V50.94H113.63V52.29H114.98V54.09H113V54.54H111.56V54.99H116.96V56.34H114.26V57.24H115.16V58.14H113.09V59.94H111.92V60.39H110.75V61.74H113.81V63.09H112.19V64.44H113.81V64.89H113.63V65.79H111.65V66.69H113.09V68.49H113.45V69.84H113.09C112.97 70.68 112.58 71.28 111.92 71.64H111.11C110.81 71.88 110.39 72 109.85 72H92.7501C92.2101 72 91.7901 71.88 91.4901 71.64H92.3001C91.6401 71.28 91.2501 70.68 91.1301 69.84H91.4901V68.49H91.1301V66.69H89.6901V65.79H91.6701V64.89H91.8501V64.44H90.2301V63.09H91.8501V61.74H88.7901V60.39H89.9601V59.94H91.1301V58.14H93.2001V57.24H92.3001V56.34H95.0001V54.99H89.6001V54.54H91.0401V54.09H93.0201V52.29H91.6701V50.94H90.4101V50.04H91.6701V48.69H91.1301V47.79H90.0501V47.34H90.9501V46.89H93.6501V45.54H93.2001V45.09H91.5801V44.64H88.6101V44.19H85.0101V42.39H83.0301V41.04H88.7001V40.59H90.3201V38.79H91.0401V36.99H90.2301V35.64H93.3801V33.84H93.5601V32.04H90.1401V30.69H93.0201V28.89H90.2301V28.44H91.1301V27.63C91.1301 27.33 91.1901 27 91.3101 26.64H91.2201C91.6401 25.68 92.3901 25.2 93.4701 25.2H109.22C110.24 25.2 110.96 25.68 111.38 26.64H111.56C111.68 27 111.74 27.33 111.74 27.63V28.44H110.84V28.89H113.63V29.16L113.99 28.89H114.17C114.29 28.77 114.41 28.68 114.53 28.62C114.65 28.56 114.74 28.5 114.8 28.44H114.98C116.18 27.66 117.35 27.06 118.49 26.64H118.67C119.87 26.16 121.07 25.8 122.27 25.56C123.47 25.32 124.73 25.2 126.05 25.2H130.37C131.45 25.2 132.2 25.68 132.62 26.64H132.44C132.56 27 132.62 27.33 132.62 27.63V28.44H132.53V28.89H132.35V30.69H131.54V32.04ZM189.642 70.29C189.522 70.89 189.222 71.34 188.742 71.64H194.592C194.292 71.88 193.902 72 193.422 72H174.522C173.982 72 173.472 71.88 172.992 71.64H158.502C158.202 71.88 157.782 72 157.242 72H141.492C140.952 72 140.532 71.88 140.232 71.64H152.562C152.022 71.28 151.692 70.83 151.572 70.29H138.882C138.822 70.11 138.792 69.87 138.792 69.57V68.49H135.912V67.59H138.072V65.79H136.992V63.99H137.622V62.64H138.162V61.74H137.802V60.84H136.272V59.49H137.532V58.59H138.792V56.79H137.262V55.89H136.992V55.44H137.802V54.54H137.712V54.09H137.082V52.74H139.422V51.39H141.762V50.94H139.062V49.59H137.802V48.24H137.442V47.34H137.982V45.54H137.622V43.74H137.892V43.29H137.712V42.84H137.442V42.39H137.262V40.59H136.812V40.14H139.692V38.79H137.082V38.34H141.132V36.99H136.092V36.54H138.792V36.09H145.092V34.74H136.092V32.94H137.622V31.14H138.432V30.69H138.702V29.34H136.992V28.44H137.982V26.64H137.172V25.29H138.072V23.49H137.892V22.14H137.172V20.34H138.972V19.44H137.622V18.99H135.192V18.54H132.942V16.74H134.202V16.29H136.632V14.94H130.602V14.49H141.942V14.04H140.592V13.14H125.202V12.69H122.952V10.89H143.382V10.44H136.272C136.272 10.2 136.332 9.9 136.452 9.54H129.522C129.942 8.58 130.662 8.1 131.682 8.1H147.432C148.512 8.1 149.262 8.58 149.682 9.54H156.612C156.792 9.78 156.882 10.08 156.882 10.44H163.992V10.89H143.562V12.69H145.812V13.14H161.202V14.04H162.552V14.49H151.212V14.94H157.242V16.29H154.812V16.74H153.552V18.54H155.802V18.99H158.232V19.44H159.582V20.34H157.782V22.14H158.502V23.49H158.682V25.29H157.782V26.64H158.592V28.44H157.602V29.34H159.312V30.69H159.042V31.14H158.232V32.94H156.702V34.74H165.252L166.332 32.94H161.832L163.002 31.14H163.542L163.812 30.69H163.362L164.172 29.34H165.252L165.792 28.44H165.612L166.692 26.73V26.64H165.882C166.002 26.46 166.182 26.22 166.422 25.92C166.722 25.62 167.112 25.41 167.592 25.29H168.042C168.222 25.23 168.492 25.2 168.852 25.2H187.032C187.332 25.2 187.542 25.23 187.662 25.29H187.212C187.872 25.47 188.352 25.92 188.652 26.64H189.462C189.522 26.76 189.552 26.88 189.552 27C189.612 27.12 189.642 27.24 189.642 27.36C189.642 27.72 189.522 28.08 189.282 28.44H189.462C189.462 28.5 189.402 28.59 189.282 28.71L188.832 29.34H187.842L186.852 30.69H187.392L187.032 31.14H186.492L185.232 32.94H189.642L188.382 34.74L187.392 36.09H188.202L187.932 36.54H183.252L182.892 36.99H179.292L178.302 38.34H179.742L179.472 38.79H183.612L182.982 39.69L182.622 40.14H179.832L179.472 40.59H179.922L178.662 42.39H178.842L178.482 42.84H178.842L178.482 43.29H178.662L178.392 43.74H178.122L176.862 45.54H177.222L176.682 46.26L177.402 47.34H176.862L177.402 48.24H177.762L178.662 49.59H179.922L180.822 50.94H183.522L183.882 51.39H181.452L182.352 52.74H180.012L180.912 54.09H181.542L181.812 54.54H181.902L182.532 55.44H181.902L182.172 55.89H183.522L184.062 56.79H185.142L186.312 58.59H184.602L185.142 59.49H185.052L185.862 60.84H186.582L187.122 61.74H186.402L187.032 62.64H187.932L188.742 63.99H188.382L189.552 65.79H189.102L190.272 67.59H192.432L193.062 68.49H198.012L198.102 68.67C198.342 69.03 198.462 69.42 198.462 69.84V70.29H189.642ZM159.402 36.54H156.702V36.99H159.942L160.212 36.54H164.892L165.162 36.09H159.402V36.54ZM160.302 38.79V39.69L160.842 38.79H160.302ZM174.522 70.29L173.442 68.49H168.492L167.952 67.59H165.792L164.712 65.79H165.162L164.082 63.99H164.442L163.632 62.64H162.732L162.192 61.74H162.912L162.372 60.84H161.742L160.932 59.49H161.112L160.572 58.59H162.192L161.112 56.79H160.122L159.582 55.89H158.322L158.052 55.44H157.602V55.89H157.872V56.79H159.402V58.59H158.142V59.49H156.882V60.84H158.412V61.74H158.772V62.64H158.232V63.99H157.602V65.79H158.682V67.59H156.522V68.49H159.402V69.57C159.402 69.87 159.372 70.11 159.312 70.29H174.522ZM247.474 70.29C247.354 70.89 247.054 71.34 246.574 71.64H252.424C252.124 71.88 251.734 72 251.254 72H232.354C231.814 72 231.304 71.88 230.824 71.64H216.334C216.034 71.88 215.614 72 215.074 72H199.324C198.784 72 198.364 71.88 198.064 71.64H210.394C209.854 71.28 209.524 70.83 209.404 70.29H196.714C196.654 70.11 196.624 69.87 196.624 69.57V68.49H193.744V67.59H195.904V65.79H194.824V63.99H195.454V62.64H195.994V61.74H195.634V60.84H194.104V59.49H195.364V58.59H196.624V56.79H195.094V55.89H194.824V55.44H195.634V54.54H195.544V54.09H194.914V52.74H197.254V51.39H199.594V50.94H196.894V49.59H195.634V48.24H195.274V47.34H195.814V45.54H195.454V43.74H195.724V43.29H195.544V42.84H195.274V42.39H195.094V40.59H194.644V40.14H197.524V38.79H194.914V38.34H198.964V36.99H193.924V36.54H196.624V36.09H202.924V34.74H193.924V32.94H195.454V31.14H196.264V30.69H196.534V29.34H194.824V28.44H195.814V26.64H195.004V25.29H195.904V23.49H195.724V22.14H195.004V20.34H196.804V19.44H195.454V18.99H193.024V18.54H190.774V16.74H192.034V16.29H194.464V14.94H188.434V14.49H199.774V14.04H198.424V13.14H183.034V12.69H180.784V10.89H201.214V10.44H194.104C194.104 10.2 194.164 9.9 194.284 9.54H187.354C187.774 8.58 188.494 8.1 189.514 8.1H205.264C206.344 8.1 207.094 8.58 207.514 9.54H214.444C214.624 9.78 214.714 10.08 214.714 10.44H221.824V10.89H201.394V12.69H203.644V13.14H219.034V14.04H220.384V14.49H209.044V14.94H215.074V16.29H212.644V16.74H211.384V18.54H213.634V18.99H216.064V19.44H217.414V20.34H215.614V22.14H216.334V23.49H216.514V25.29H215.614V26.64H216.424V28.44H215.434V29.34H217.144V30.69H216.874V31.14H216.064V32.94H214.534V34.74H223.084L224.164 32.94H219.664L220.834 31.14H221.374L221.644 30.69H221.194L222.004 29.34H223.084L223.624 28.44H223.444L224.524 26.73V26.64H223.714C223.834 26.46 224.014 26.22 224.254 25.92C224.554 25.62 224.944 25.41 225.424 25.29H225.874C226.054 25.23 226.324 25.2 226.684 25.2H244.864C245.164 25.2 245.374 25.23 245.494 25.29H245.044C245.704 25.47 246.184 25.92 246.484 26.64H247.294C247.354 26.76 247.384 26.88 247.384 27C247.444 27.12 247.474 27.24 247.474 27.36C247.474 27.72 247.354 28.08 247.114 28.44H247.294C247.294 28.5 247.234 28.59 247.114 28.71L246.664 29.34H245.674L244.684 30.69H245.224L244.864 31.14H244.324L243.064 32.94H247.474L246.214 34.74L245.224 36.09H246.034L245.764 36.54H241.084L240.724 36.99H237.124L236.134 38.34H237.574L237.304 38.79H241.444L240.814 39.69L240.454 40.14H237.664L237.304 40.59H237.754L236.494 42.39H236.674L236.314 42.84H236.674L236.314 43.29H236.494L236.224 43.74H235.954L234.694 45.54H235.054L234.514 46.26L235.234 47.34H234.694L235.234 48.24H235.594L236.494 49.59H237.754L238.654 50.94H241.354L241.714 51.39H239.284L240.184 52.74H237.844L238.744 54.09H239.374L239.644 54.54H239.734L240.364 55.44H239.734L240.004 55.89H241.354L241.894 56.79H242.974L244.144 58.59H242.434L242.974 59.49H242.884L243.694 60.84H244.414L244.954 61.74H244.234L244.864 62.64H245.764L246.574 63.99H246.214L247.384 65.79H246.934L248.104 67.59H250.264L250.894 68.49H255.844L255.934 68.67C256.174 69.03 256.294 69.42 256.294 69.84V70.29H247.474ZM217.234 36.54H214.534V36.99H217.774L218.044 36.54H222.724L222.994 36.09H217.234V36.54ZM218.134 38.79V39.69L218.674 38.79H218.134ZM232.354 70.29L231.274 68.49H226.324L225.784 67.59H223.624L222.544 65.79H222.994L221.914 63.99H222.274L221.464 62.64H220.564L220.024 61.74H220.744L220.204 60.84H219.574L218.764 59.49H218.944L218.404 58.59H220.024L218.944 56.79H217.954L217.414 55.89H216.154L215.884 55.44H215.434V55.89H215.704V56.79H217.234V58.59H215.974V59.49H214.714V60.84H216.244V61.74H216.604V62.64H216.064V63.99H215.434V65.79H216.514V67.59H214.354V68.49H217.234V69.57C217.234 69.87 217.204 70.11 217.144 70.29H232.354Z" fill="#A2A2A2" fill-opacity="0.2"/>
</g>
<defs>
<clipPath id="clip0_1_2">
<rect width="259" height="76" fill="white"/>
</clipPath>
</defs>
</svg>
